<svg width="245" height="52" viewBox="0 0 245 52" fill="none" xmlns="http://www.w3.org/2000/svg">
<g filter="url(#filter0_d_4_22)">
<path d="M27.2368 24.608C26.9381 24.608 26.7034 24.5653 26.5328 24.48C26.1488 24.3093 25.9568 24.224 25.9568 24.224C25.9568 24.1813 26.1488 24.032 26.5328 23.776C26.8314 23.6053 27.1728 23.5413 27.5568 23.584C27.9834 23.6267 28.2821 23.6267 28.4528 23.584C29.4768 23.3707 30.7141 23.072 32.1648 22.688C33.6154 22.304 35.3008 21.536 37.2208 20.384L39.7168 18.912C39.9301 18.784 40.0794 18.8053 40.1648 18.976C40.0794 19.0187 40.0368 19.1253 40.0368 19.296C40.3354 19.296 40.5061 19.1893 40.5488 18.976C40.6341 18.72 40.7194 18.4853 40.8048 18.272H40.8688L42.2768 17.376C42.4901 17.3333 42.6821 17.3547 42.8528 17.44C43.0661 17.5253 43.2581 17.504 43.4288 17.376C43.3434 17.2053 43.2581 17.0987 43.1728 17.056C43.0874 16.9707 43.1301 16.864 43.3008 16.736L43.5568 16.544C43.8981 16.3307 44.1968 16.1813 44.4528 16.096C44.7514 15.968 44.9648 15.7333 45.0928 15.392C45.9461 14.624 46.6714 13.856 47.2688 13.088C47.8661 12.32 48.1648 11.5947 48.1648 10.912C48.1648 10.1867 47.7594 9.568 46.9488 9.056C46.1808 8.50133 44.7941 8.096 42.7888 7.84L42.2768 7.776C41.9781 7.73333 41.7008 7.69066 41.4448 7.648C41.1888 7.60533 40.9328 7.52 40.6768 7.392C40.7194 7.56267 40.6341 7.648 40.4208 7.648C39.8234 7.60533 39.2261 7.584 38.6287 7.584C38.0314 7.54133 37.4554 7.52 36.9008 7.52C35.9621 7.52 35.0874 7.54133 34.2768 7.584C33.5088 7.62667 32.9541 7.66933 32.6128 7.712L30.5008 7.968C30.2448 7.88266 29.9888 7.92533 29.7328 8.096H29.6688C29.3701 8.096 29.0714 8.13867 28.7728 8.224C28.4741 8.26667 28.1541 8.33066 27.8128 8.416C27.6421 8.45867 27.4501 8.50133 27.2368 8.544C27.0234 8.544 26.8101 8.58667 26.5968 8.672L25.3168 8.928C25.0181 9.14133 24.6341 9.248 24.1648 9.248H24.1008L22.8848 9.568H22.8208C22.6501 9.568 22.5008 9.48267 22.3728 9.312C22.2448 9.09867 22.1594 8.90667 22.1168 8.736C22.0741 8.992 22.0101 9.26933 21.9248 9.568C21.8394 9.86667 21.6901 10.016 21.4768 10.016L19.6848 10.592C19.5141 10.6347 19.3221 10.656 19.1088 10.656C18.8954 10.656 18.6821 10.656 18.4688 10.656C18.2554 10.656 18.0848 10.6773 17.9568 10.72C17.8288 10.7627 17.7434 10.8693 17.7008 11.04C17.7008 11.168 17.6368 11.2747 17.5088 11.36C17.3381 11.5307 17.1248 11.6587 16.8688 11.744C16.6128 11.7867 16.3781 11.8507 16.1648 11.936H16.1008C16.0154 11.936 15.8874 11.8933 15.7168 11.808C15.5888 11.7227 15.4821 11.7013 15.3968 11.744C15.3541 11.7867 15.3114 11.8933 15.2688 12.064C15.2261 12.2347 15.1621 12.3413 15.0768 12.384V12.448C14.8208 12.5333 14.5434 12.64 14.2448 12.768C13.9461 12.896 13.6688 13.024 13.4128 13.152C13.1568 13.28 12.8581 13.4293 12.5168 13.6C12.2181 13.728 11.9621 13.8133 11.7488 13.856C11.6634 13.856 11.6208 13.7707 11.6208 13.6C11.6634 13.4293 11.6421 13.3867 11.5568 13.472C11.3008 13.6 11.0448 13.8347 10.7888 14.176C10.5328 14.5173 10.2981 14.752 10.0848 14.88C9.87142 15.0507 9.63675 15.136 9.38075 15.136C9.16742 15.136 8.95408 15.2213 8.74075 15.392C8.61275 15.52 8.48475 15.7333 8.35675 16.032C8.27142 16.288 8.16475 16.48 8.03675 16.608C7.69542 16.9493 7.35408 17.3547 7.01275 17.824C6.97008 17.9093 6.90608 17.9947 6.82075 18.08C6.73542 18.1653 6.69275 18.272 6.69275 18.4H6.62875C6.37275 18.912 6.24475 19.4027 6.24475 19.872C6.24475 20.8107 6.58608 21.4933 7.26875 21.92C7.99408 22.3467 8.80475 22.6667 9.70075 22.88C9.87142 22.9227 10.0208 22.9867 10.1488 23.072C10.3194 23.1573 10.4901 23.1787 10.6608 23.136C10.8314 23.0507 10.9808 23.008 11.1088 23.008C11.3221 23.008 11.4928 23.0933 11.6208 23.264L12.5808 23.456C13.0928 23.584 13.3488 23.712 13.3488 23.84C13.3488 23.9253 13.2208 24.0107 12.9648 24.096C12.7514 24.1387 12.5381 24.16 12.3248 24.16C11.5568 24.16 10.6181 24.0107 9.50875 23.712C8.39942 23.3707 7.39675 22.88 6.50075 22.24C5.60475 21.6 5.09275 20.768 4.96475 19.744C4.96475 19.7013 4.90075 19.5947 4.77275 19.424C4.68742 19.2533 4.62342 19.104 4.58075 18.976C4.45275 18.592 4.38875 18.208 4.38875 17.824C4.38875 17.0987 4.53808 16.416 4.83675 15.776C5.17808 15.136 5.62608 14.5387 6.18075 13.984C6.39408 13.7707 6.58608 13.6213 6.75675 13.536C6.97008 13.4507 7.20475 13.3227 7.46075 13.152C7.71675 12.9813 7.84475 12.832 7.84475 12.704C7.84475 12.576 7.97275 12.4267 8.22875 12.256C8.57008 12.0427 9.03942 11.7867 9.63675 11.488C10.2768 11.1893 10.7674 10.9547 11.1088 10.784C11.3648 10.784 11.5994 10.6773 11.8128 10.464C12.6661 10.08 13.5621 9.73867 14.5008 9.44C15.4394 9.09867 16.3781 8.77867 17.3168 8.48C17.4874 8.43733 17.6368 8.39467 17.7648 8.352C17.8928 8.30933 18.0208 8.288 18.1488 8.288C18.3194 8.288 18.4901 8.352 18.6608 8.48C18.6608 8.39467 18.6394 8.33067 18.5968 8.288C18.5968 8.20266 18.6394 8.13866 18.7248 8.096C19.7914 7.75466 20.8368 7.43466 21.8608 7.136C22.9274 6.79467 23.9728 6.624 24.9968 6.624H25.0608C25.1461 6.624 25.2314 6.60267 25.3168 6.56C25.4448 6.51733 25.5514 6.496 25.6368 6.496H25.7008L26.1488 6.432C26.4048 6.56 26.6608 6.51733 26.9168 6.304C28.0688 6.09067 29.1354 5.94133 30.1168 5.856C31.0981 5.728 31.9301 5.664 32.6128 5.664H32.8688C33.0821 5.664 33.2528 5.64266 33.3808 5.6H34.0208C34.1488 5.55733 34.2768 5.55733 34.4048 5.6C34.5754 5.6 34.7034 5.6 34.7887 5.6H34.8528C35.3648 5.6 35.8981 5.62133 36.4528 5.664C37.0501 5.664 37.6474 5.664 38.2448 5.664H38.3088C38.4794 5.664 38.6074 5.728 38.6928 5.856C38.8208 5.94133 38.9701 5.89867 39.1408 5.728C40.2928 5.77066 41.4448 5.89867 42.5968 6.112C43.4501 6.24 44.4314 6.496 45.5408 6.88C46.6928 7.264 47.6954 7.86133 48.5488 8.672C49.4021 9.44 49.8288 10.528 49.8288 11.936C49.8288 12.6187 49.7434 13.2373 49.5728 13.792C49.4448 14.304 49.1888 14.7733 48.8048 15.2C48.4634 15.6267 48.0581 16.0533 47.5888 16.48C47.4608 16.608 47.3328 16.7573 47.2048 16.928C47.0768 17.0987 46.9274 17.248 46.7568 17.376C46.7141 17.4187 46.6288 17.4613 46.5008 17.504C46.4154 17.504 46.3301 17.5253 46.2448 17.568C46.1594 17.6533 46.0741 17.7173 45.9888 17.76C45.9034 17.8027 45.7968 17.8667 45.6688 17.952C44.2608 18.8907 43.0448 19.5947 42.0208 20.064C41.0394 20.4907 39.7381 20.9813 38.1168 21.536C37.6048 21.7067 37.2421 21.8133 37.0288 21.856C36.8154 21.856 36.6448 21.8987 36.5168 21.984C35.4501 22.2827 34.2341 22.7093 32.8688 23.264C31.5034 23.8187 30.3301 24.1813 29.3488 24.352C29.2634 24.3947 28.9861 24.4587 28.5168 24.544C28.0901 24.5867 27.6634 24.608 27.2368 24.608ZM46.3728 43.744C46.3301 43.744 46.1808 43.744 45.9248 43.744C45.6688 43.744 45.5194 43.7227 45.4768 43.68C45.3061 43.5947 45.2421 43.4667 45.2848 43.296C45.3274 43.1253 45.2634 43.04 45.0928 43.04C44.9221 43.04 44.8154 43.104 44.7728 43.232C44.7301 43.4027 44.6021 43.488 44.3888 43.488H44.3248C44.1114 43.488 43.9194 43.3813 43.7488 43.168C43.6208 42.9547 43.4714 42.8907 43.3008 42.976C43.0448 43.104 42.8314 43.168 42.6608 43.168C42.3621 43.168 42.1274 43.0613 41.9568 42.848C41.7861 42.6347 41.5514 42.4427 41.2528 42.272C41.2101 42.272 41.1248 42.2933 40.9968 42.336C40.9114 42.3787 40.8261 42.3787 40.7408 42.336C40.6981 42.2933 40.3568 42.1013 39.7168 41.76C39.0768 41.4613 38.4368 41.1413 37.7968 40.8C37.1568 40.4587 36.7728 40.2453 36.6448 40.16C36.5168 39.8613 36.3888 39.6907 36.2607 39.648C36.1754 39.6053 35.9834 39.584 35.6848 39.584C35.5141 39.456 35.2794 39.3067 34.9808 39.136C34.7248 39.008 34.5541 38.8373 34.4688 38.624C33.9141 38.4107 33.4234 38.1547 32.9968 37.856C32.5701 37.5573 32.1221 37.216 31.6528 36.832C31.5674 36.7467 31.4608 36.6827 31.3328 36.64C31.2048 36.5973 31.0981 36.5333 31.0128 36.448L29.2848 35.168C29.1994 34.912 28.8794 34.6347 28.3248 34.336C27.7701 33.9947 27.3861 33.6747 27.1728 33.376C27.1301 33.3333 27.1088 33.2907 27.1088 33.248C27.1088 33.0347 27.0021 32.928 26.7888 32.928C26.6608 32.928 26.5328 32.928 26.4048 32.928C26.2768 32.928 26.2128 32.8427 26.2128 32.672C26.0848 32.3733 25.7648 32.032 25.2528 31.648C24.7408 31.2213 24.2714 30.7947 23.8448 30.368C23.4181 29.9413 23.2688 29.5787 23.3968 29.28C23.2261 29.2373 23.0554 29.216 22.8848 29.216C22.7141 29.216 22.5861 29.152 22.5008 29.024C22.3301 28.6827 22.1168 28.4053 21.8608 28.192C21.7328 28.1067 21.6048 27.9787 21.4768 27.808L21.1568 28.448C20.9861 28.704 20.8154 29.0027 20.6448 29.344C20.4741 29.6853 20.2821 30.048 20.0688 30.432L19.4928 31.584C19.4501 31.712 19.3861 31.776 19.3008 31.776C19.2581 31.7333 19.1941 31.712 19.1088 31.712C19.1941 31.8827 19.2368 32.032 19.2368 32.16C19.2368 32.5013 19.0448 32.864 18.6608 33.248C18.1061 34.528 17.5941 35.744 17.1248 36.896C16.6554 38.048 16.2928 39.1147 16.0368 40.096C15.9514 40.4373 15.8234 40.608 15.6528 40.608C15.3541 40.608 15.2048 40.288 15.2048 39.648C15.2048 39.0507 15.4394 38.112 15.9088 36.832L15.8448 36.896C15.8021 36.896 15.6528 36.9387 15.3968 37.024C15.1408 37.1093 14.9701 37.1307 14.8848 37.088C14.3301 37.088 14.0528 36.896 14.0528 36.512C14.0528 35.488 14.2661 34.4213 14.6928 33.312L16.3568 28.96C16.4421 28.832 16.4848 28.704 16.4848 28.576C16.5274 28.448 16.5701 28.32 16.6128 28.192L16.6768 28.128V28.064L16.9328 26.72C17.0181 26.336 17.0608 25.9947 17.0608 25.696C17.1034 25.3973 17.1248 25.0347 17.1248 24.608C17.1248 24.48 17.1888 24.3947 17.3168 24.352C17.3168 24.0533 17.3381 23.776 17.3808 23.52C17.4234 23.2213 17.4448 22.9227 17.4448 22.624V22.304C17.4021 22.2613 17.3808 22.176 17.3808 22.048C17.3808 21.9627 17.3594 21.8773 17.3168 21.792C17.3168 21.7067 17.3168 21.6213 17.3168 21.536C17.3168 21.4933 17.3168 21.472 17.3168 21.472C17.3594 21.4293 17.3808 21.3867 17.3808 21.344C17.4661 20.832 17.6154 20.3627 17.8288 19.936C18.0848 19.5093 18.3621 19.4027 18.6608 19.616C18.7461 19.6587 18.8954 19.9147 19.1088 20.384C19.3648 20.8533 19.5781 21.1947 19.7488 21.408C19.9194 21.8347 20.1328 22.24 20.3888 22.624C20.6448 22.9653 20.8581 23.3493 21.0288 23.776C21.1568 23.9893 21.2208 24.16 21.2208 24.288C21.2208 24.3733 21.3701 24.4587 21.6688 24.544C22.9061 22.3253 24.1434 20.2133 25.3808 18.208C26.6608 16.16 27.8554 14.5813 28.9648 13.472L29.1568 13.344L29.3488 13.024C29.3488 13.024 29.3914 13.0027 29.4768 12.96C29.5621 12.9173 29.6261 12.9387 29.6688 13.024C29.6688 13.0667 29.6261 13.152 29.5408 13.28C29.4981 13.408 29.4768 13.4933 29.4768 13.536C29.6048 13.7493 29.7541 13.7707 29.9248 13.6C29.9674 13.5147 29.9674 13.3227 29.9248 13.024C29.8821 12.7253 29.8821 12.576 29.9248 12.576C30.0101 12.5333 30.0528 12.5333 30.0528 12.576C30.0954 12.6187 30.1381 12.64 30.1808 12.64C30.2661 12.64 30.3088 12.576 30.3088 12.448C30.3088 12.32 30.3301 12.2347 30.3728 12.192C30.8421 12.0213 31.2688 11.936 31.6528 11.936C31.8661 11.936 32.1648 12.0427 32.5488 12.256C32.9754 12.4693 33.1888 12.768 33.1888 13.152C33.1888 13.3653 33.0821 13.6213 32.8688 13.92C32.8261 13.9627 32.7834 14.048 32.7408 14.176C32.6981 14.2613 32.6341 14.3467 32.5488 14.432C32.5061 14.4747 32.4634 14.496 32.4208 14.496C32.4208 14.4533 32.3781 14.4533 32.2928 14.496C32.2501 14.5387 32.1861 14.56 32.1008 14.56C32.0581 14.5173 31.9941 14.496 31.9088 14.496C31.8234 14.496 31.8021 14.56 31.8448 14.688C31.9301 14.816 31.9514 14.9013 31.9088 14.944C31.8661 14.9867 31.8234 14.9867 31.7808 14.944C31.7381 14.9013 31.6741 14.9227 31.5888 15.008C31.5461 15.0507 31.5674 15.0933 31.6528 15.136C31.7808 15.136 31.8021 15.1787 31.7168 15.264C31.4608 15.52 31.1408 15.7973 30.7568 16.096C30.4154 16.352 30.0741 16.608 29.7328 16.864C29.6901 16.9067 29.6474 16.9067 29.6048 16.864C29.5621 16.7787 29.5194 16.7573 29.4768 16.8L29.0288 17.44C28.6021 17.8667 28.1754 18.3147 27.7488 18.784C27.3221 19.2533 26.8741 19.7867 26.4048 20.384C26.2768 20.64 26.1274 20.8747 25.9568 21.088C25.7861 21.3013 25.5514 21.3867 25.2528 21.344C25.2528 21.3867 25.2954 21.4507 25.3808 21.536C25.4661 21.5787 25.4661 21.664 25.3808 21.792C24.4421 23.072 23.5674 24.3947 22.7568 25.76L24.1008 27.424C24.2288 27.5947 24.2928 27.7867 24.2928 28C24.2928 28.1707 24.3354 28.2773 24.4208 28.32C24.5061 28.32 24.5701 28.2987 24.6128 28.256C24.6981 28.2133 24.7621 28.192 24.8048 28.192C24.9328 28.192 25.0394 28.2987 25.1248 28.512C25.2528 28.6827 25.3808 28.832 25.5088 28.96C25.6794 29.1307 25.8501 29.3013 26.0208 29.472C26.2341 29.6427 26.4474 29.8347 26.6608 30.048V30.112C26.8314 30.24 27.1088 30.4747 27.4928 30.816C27.8768 31.1573 28.2394 31.4987 28.5808 31.84C28.9221 32.1387 29.1141 32.3733 29.1568 32.544C29.2421 32.7147 29.3701 32.8213 29.5408 32.864C29.7114 32.9067 29.8608 32.9707 29.9888 33.056C30.3301 33.312 30.6714 33.568 31.0128 33.824C31.3968 34.08 31.7594 34.3573 32.1008 34.656C32.2288 34.7413 32.2714 34.8267 32.2288 34.912C32.2288 34.9973 32.2501 35.0827 32.2928 35.168C32.3781 35.2107 32.5274 35.2747 32.7408 35.36C32.9968 35.4027 33.1888 35.4667 33.3168 35.552C34.2981 36.192 35.2794 36.8107 36.2607 37.408C37.2421 38.048 38.2661 38.6453 39.3328 39.2C40.4421 39.7547 41.5728 40.2453 42.7248 40.672C43.8768 41.0987 45.0928 41.312 46.3728 41.312C47.3968 41.312 48.3781 41.12 49.3168 40.736C50.2981 40.352 50.7888 39.648 50.7888 38.624C50.7888 38.2827 50.7248 37.92 50.5968 37.536C50.5541 37.3227 50.4688 37.088 50.3408 36.832C50.2554 36.576 50.1061 36.384 49.8928 36.256C49.7648 36 49.5301 35.8293 49.1888 35.744C48.9754 35.5307 48.7834 35.3173 48.6128 35.104C48.4421 34.848 48.1861 34.7413 47.8448 34.784C47.7168 34.656 47.6528 34.528 47.6528 34.4C47.6528 34.2293 47.7168 34.1013 47.8448 34.016C48.0154 33.888 48.2074 33.8667 48.4208 33.952C48.7194 34.1227 48.9541 34.3573 49.1248 34.656C49.3381 34.912 49.6154 35.0613 49.9568 35.104L50.2768 35.424C50.4048 35.6373 50.5328 35.808 50.6608 35.936C50.8314 36.064 50.9808 36.2347 51.1088 36.448C51.2368 36.6187 51.3648 36.8533 51.4928 37.152C51.6634 37.4933 51.7701 37.7707 51.8128 37.984C51.8981 38.1547 51.9194 38.3253 51.8768 38.496C51.8768 38.6667 51.9408 38.8587 52.0688 39.072C52.1541 40.3947 51.7274 41.4613 50.7888 42.272C49.8501 43.1253 48.7621 43.5947 47.5248 43.68C47.3968 43.5947 47.2688 43.5307 47.1408 43.488C47.0554 43.4453 46.9701 43.424 46.8848 43.424C46.7568 43.424 46.5861 43.5307 46.3728 43.744ZM16.7408 34.784C16.8261 34.8267 16.8688 34.8267 16.8688 34.784C16.9114 34.6987 16.9328 34.656 16.9328 34.656C17.0181 34.528 17.0608 34.4 17.0608 34.272C17.0608 34.1013 17.0821 33.952 17.1248 33.824C17.8928 31.904 18.8741 29.8133 20.0688 27.552C20.1541 27.3813 20.2394 27.3387 20.3248 27.424C20.4528 27.4667 20.5381 27.4453 20.5808 27.36C20.6661 27.2747 20.6874 27.168 20.6448 27.04C20.6448 26.912 20.6448 26.8053 20.6448 26.72C20.6021 26.6347 20.5381 26.5707 20.4528 26.528C20.3674 26.4853 20.3034 26.4213 20.2608 26.336C20.0901 25.8667 19.8554 25.568 19.5568 25.44C19.3008 25.2693 19.1088 25.0133 18.9808 24.672C18.8101 24.288 18.6394 24.0107 18.4688 23.84C18.3408 23.6267 18.1701 23.3707 17.9568 23.072L17.7648 25.248C17.7221 25.6747 17.6581 26.1653 17.5728 26.72C17.5301 27.2747 17.4234 27.7867 17.2528 28.256C17.2101 28.384 17.1888 28.576 17.1888 28.832V29.536C17.1888 29.6213 17.1674 29.728 17.1248 29.856C17.1248 29.984 17.1248 30.112 17.1248 30.24L16.9968 31.52C16.9541 31.9467 16.8901 32.3947 16.8048 32.864C16.7194 33.2907 16.6768 33.696 16.6768 34.08C16.6768 34.4213 16.6981 34.656 16.7408 34.784ZM54.6883 36.576C53.7496 36.576 52.9176 36.32 52.1923 35.808C51.5096 35.2533 51.1683 34.3147 51.1683 32.992C51.1683 32.5227 51.2536 31.8613 51.4243 31.008C51.5949 30.1547 51.8723 29.2587 52.2563 28.32C52.4696 27.808 52.7043 27.3173 52.9603 26.848C53.2589 26.3787 53.5363 25.9307 53.7923 25.504C53.8349 25.4613 53.9629 25.504 54.1763 25.632C54.4323 25.76 54.5816 25.8027 54.6243 25.76C54.6669 25.6747 54.6029 25.5893 54.4323 25.504C54.3043 25.376 54.2616 25.2907 54.3043 25.248C54.3896 25.1627 54.4536 25.12 54.4963 25.12C54.5816 25.0773 54.6456 25.0133 54.6883 24.928C54.7309 24.8427 54.7523 24.7573 54.7523 24.672C54.7523 24.544 54.6883 24.4373 54.5603 24.352C54.4749 24.2667 54.5176 24.1387 54.6883 23.968C54.9016 23.6693 55.1363 23.392 55.3923 23.136C55.6909 22.8373 55.9469 22.5813 56.1603 22.368C56.2456 22.2827 56.3523 22.1547 56.4803 21.984C56.6083 21.7707 56.6936 21.6427 56.7363 21.6L56.8643 21.472C56.9069 21.4293 56.9496 21.3867 56.9923 21.344C56.9923 21.3013 56.9923 21.28 56.9923 21.28C57.0349 21.28 57.0563 21.2587 57.0563 21.216C57.0563 21.088 56.9283 20.96 56.6723 20.832C56.4163 20.704 56.2883 20.6187 56.2883 20.576C56.2883 20.5333 56.2669 20.4907 56.2243 20.448C56.1816 20.4053 56.1389 20.3413 56.0963 20.256C56.1389 20.256 56.1816 20.2133 56.2243 20.128C56.3096 20 56.3736 19.936 56.4163 19.936C56.4589 19.936 56.5443 19.9787 56.6723 20.064C56.8003 20.1067 56.8856 20.128 56.9283 20.128C56.9709 20.128 56.9923 20.1067 56.9923 20.064C57.0349 20.0213 57.0776 20 57.1203 20C57.2056 20 57.3976 20.064 57.6963 20.192C57.9949 20.2773 58.1656 20.32 58.2083 20.32C58.2509 20.32 58.3789 20.2133 58.5923 20C58.8056 19.7867 58.9336 19.6587 58.9763 19.616C59.0616 19.5307 59.1256 19.4453 59.1683 19.36C59.2109 19.232 59.3176 19.0827 59.4883 18.912H59.5523C59.5949 18.8693 59.6163 18.8267 59.6163 18.784C59.6163 18.7413 59.6163 18.72 59.6163 18.72C59.7016 18.6347 59.7656 18.5707 59.8083 18.528C59.8936 18.4427 59.9576 18.3787 60.0003 18.336C60.0429 18.2933 60.0642 18.272 60.0642 18.272C60.1069 18.272 60.1283 18.272 60.1283 18.272C60.1709 18.1867 60.2136 18.1227 60.2563 18.08C60.3416 18.0373 60.4056 17.9947 60.4483 17.952L60.5763 17.696C60.6616 17.6107 60.9603 17.4187 61.4723 17.12C61.9843 16.8213 62.3683 16.672 62.6243 16.672H62.9443C62.9443 16.672 62.9443 16.6933 62.9443 16.736C62.9443 16.736 62.9656 16.736 63.0083 16.736C63.0509 16.736 63.0936 16.736 63.1363 16.736C63.1789 16.6933 63.2216 16.672 63.2643 16.672C63.2643 16.672 63.3283 16.736 63.4563 16.864C63.4989 16.9067 63.5416 16.928 63.5843 16.928C63.6269 16.8853 63.6696 16.864 63.7123 16.864C63.7549 16.9067 63.7763 16.9493 63.7763 16.992C63.7763 17.0347 63.7976 17.056 63.8403 17.056C63.9256 17.056 63.9469 17.056 63.9043 17.056C63.9043 17.0133 63.9256 16.992 63.9683 16.992C64.0109 16.992 64.0323 17.0347 64.0323 17.12C64.0323 17.2053 64.0536 17.2907 64.0963 17.376C64.0536 17.504 64.0109 17.6533 63.9683 17.824C63.9683 17.952 63.9469 18.0587 63.9043 18.144C63.5203 18.656 63.2216 18.912 63.0083 18.912C63.0083 18.9547 62.9443 19.04 62.8163 19.168C62.6883 19.168 62.5389 19.2107 62.3683 19.296C62.1976 19.3813 62.0269 19.4667 61.8563 19.552V19.744C61.8563 19.9147 61.7923 20 61.6643 20C61.5789 19.9573 61.4936 20.0213 61.4083 20.192V20.256C61.4936 20.384 61.6429 20.448 61.8563 20.448L62.3043 20.512C62.3896 20.512 62.4323 20.4907 62.4323 20.448C62.4749 20.4053 62.5176 20.384 62.5603 20.384C62.6029 20.384 62.6243 20.4053 62.6243 20.448C62.6243 20.448 62.6456 20.448 62.6883 20.448C62.7736 20.448 62.8376 20.4267 62.8803 20.384C62.9229 20.3413 62.9656 20.32 63.0083 20.32L63.5843 20.384C63.4563 20.1707 63.3923 20 63.3923 19.872C63.3923 19.6587 63.5843 19.5307 63.9683 19.488C64.5656 19.488 65.0776 19.7013 65.5043 20.128C65.5896 20.0853 65.6963 20.0853 65.8243 20.128C65.9523 20.1707 66.0803 20.1707 66.2083 20.128L66.5283 19.936L66.5923 20C66.7629 19.9147 66.8696 19.872 66.9123 19.872C66.9976 19.872 67.0189 19.8933 66.9763 19.936C66.9763 19.936 66.9976 19.936 67.0403 19.936C67.0403 19.936 67.0829 19.8933 67.1683 19.808C67.2109 19.808 67.2536 19.8293 67.2963 19.872C67.3816 19.872 67.4456 19.8507 67.4883 19.808L67.6803 19.616H68.4483L68.5123 19.552C68.5976 19.5093 68.7043 19.4667 68.8323 19.424C69.0029 19.3387 69.1523 19.296 69.2803 19.296C69.2803 19.2533 69.3229 19.232 69.4083 19.232C69.4936 19.1893 69.5576 19.168 69.6003 19.168H69.7283C69.9416 19.168 70.0483 19.232 70.0483 19.36C70.0483 19.488 69.9843 19.5947 69.8563 19.68C69.8136 19.7227 69.7496 19.744 69.6643 19.744C69.5789 19.7013 69.4936 19.7013 69.4083 19.744C69.2376 19.9147 69.1096 20 69.0243 20C68.9816 20 68.9603 20 68.9603 20C68.9603 19.9573 68.9389 19.936 68.8963 19.936C68.8536 19.936 68.7683 20 68.6403 20.128L68.1923 20.192H68.1283C68.0429 20.192 68.0003 20.2347 68.0003 20.32C67.8296 20.32 67.6589 20.3413 67.4883 20.384C67.3176 20.384 67.1469 20.4053 66.9763 20.448L66.9123 20.512C66.8696 20.512 66.8269 20.5333 66.7843 20.576C66.7416 20.576 66.6776 20.576 66.5923 20.576C66.5069 20.6187 66.2723 20.64 65.8883 20.64C66.1443 20.9813 66.3149 21.3013 66.4003 21.6C66.4856 21.8133 66.5496 22.1547 66.5923 22.624C66.6776 23.0507 66.6989 23.3707 66.6562 23.584C66.6562 23.712 66.6136 23.7547 66.5283 23.712C66.4429 23.6267 66.4003 23.6267 66.4003 23.712C66.4003 23.84 66.4429 23.9253 66.5283 23.968C66.6563 23.968 66.7203 24.0747 66.7203 24.288C66.7203 24.416 66.6989 24.5867 66.6562 24.8C66.6136 24.9707 66.5709 25.1627 66.5283 25.376C66.4856 25.632 66.4216 25.9093 66.3363 26.208C66.2936 26.464 66.1869 26.72 66.0163 26.976L65.8243 27.296V27.68C65.8243 28.0213 65.7176 28.256 65.5043 28.384C65.3336 28.512 65.2056 28.6613 65.1203 28.832C65.0349 29.088 64.9709 29.2587 64.9283 29.344C64.9283 29.4293 64.8429 29.6 64.6723 29.856C64.1176 30.7093 63.4563 31.52 62.6883 32.288C61.9203 33.056 61.1736 33.76 60.4483 34.4C59.8083 34.9547 58.9336 35.4667 57.8243 35.936C56.7576 36.3627 55.7123 36.576 54.6883 36.576ZM55.3283 35.424C55.4563 35.424 55.7123 35.4027 56.0963 35.36C56.4803 35.2747 56.8856 35.0827 57.3123 34.784C57.3976 34.7413 57.4829 34.7627 57.5683 34.848C57.6536 34.9333 57.7389 34.9547 57.8243 34.912C58.0376 34.8267 58.1229 34.7627 58.0803 34.72C58.0376 34.6773 58.1016 34.6347 58.2723 34.592H58.3363C58.5923 34.592 58.6989 34.5707 58.6562 34.528C58.6562 34.4427 58.6776 34.336 58.7203 34.208C58.7203 34.08 58.7843 33.9733 58.9123 33.888C59.0403 33.8027 59.1469 33.7387 59.2323 33.696C59.7016 33.312 60.2776 32.672 60.9603 31.776C61.6429 30.8373 62.3256 29.8987 63.0083 28.96C63.0509 28.8747 63.1149 28.8533 63.2003 28.896C63.2856 28.9387 63.3496 28.9387 63.3923 28.896C63.4349 28.8533 63.4563 28.7253 63.4563 28.512C63.4563 28.384 63.5203 28.192 63.6483 27.936C63.7763 27.6373 63.9043 27.4027 64.0323 27.232C64.0749 27.104 64.1603 26.8693 64.2883 26.528C64.4163 26.144 64.5229 25.8027 64.6083 25.504C64.7363 25.1627 64.7576 24.992 64.6723 24.992C64.5869 24.9493 64.5443 24.9067 64.5443 24.864C64.5443 24.7787 64.6723 24.6933 64.9283 24.608C65.1843 24.5227 65.1629 24.4587 64.8643 24.416C64.7789 24.3733 64.8003 24.288 64.9283 24.16C65.0563 24.032 64.9923 23.9467 64.7363 23.904C64.5229 23.8613 64.4376 23.7973 64.4803 23.712C64.5656 23.6267 64.6296 23.5627 64.6723 23.52C64.8003 23.392 64.8643 23.264 64.8643 23.136C64.8643 22.752 64.7576 22.368 64.5443 21.984C64.3736 21.6 64.1816 21.2587 63.9683 20.96C63.7123 21.1307 63.5843 21.216 63.5843 21.216C63.5416 21.216 63.5203 21.216 63.5203 21.216C63.5203 21.1733 63.4776 21.152 63.3923 21.152C63.3496 21.152 63.3283 21.152 63.3283 21.152C63.3283 21.1093 63.3069 21.088 63.2643 21.088C63.2216 21.088 63.1789 21.1093 63.1363 21.152C63.0936 21.1947 63.0723 21.216 63.0723 21.216C63.0296 21.2587 62.9443 21.28 62.8163 21.28C62.7309 21.28 62.6669 21.28 62.6243 21.28C62.5816 21.28 62.5389 21.2587 62.4963 21.216C62.4963 21.1733 62.4749 21.152 62.4323 21.152C62.3896 21.152 62.3256 21.1947 62.2403 21.28C62.1976 21.3653 62.1336 21.408 62.0483 21.408C62.0056 21.408 61.9843 21.3867 61.9843 21.344C61.9843 21.3013 61.9416 21.28 61.8563 21.28C61.8136 21.28 61.7709 21.3013 61.7283 21.344C61.7283 21.3867 61.7069 21.408 61.6643 21.408C61.6216 21.408 61.5363 21.344 61.4083 21.216H61.3443C61.3443 21.472 61.2803 21.6 61.1523 21.6C61.1096 21.6 61.0456 21.5573 60.9603 21.472C60.4909 21.7707 59.7016 22.4747 58.5923 23.584C57.4829 24.6507 56.5016 25.888 55.6483 27.296C55.4776 27.6373 55.2643 28.0427 55.0083 28.512C54.7949 28.9813 54.6029 29.5147 54.4323 30.112C54.3896 30.368 54.2616 30.56 54.0483 30.688C53.8776 30.816 53.7496 30.9653 53.6643 31.136C53.6216 31.3067 53.6429 31.4133 53.7283 31.456C53.8136 31.4987 53.8776 31.5627 53.9203 31.648C53.9203 31.8187 53.8776 32.0533 53.7923 32.352C53.7496 32.6507 53.7283 32.928 53.7283 33.184C53.7283 33.9947 53.8776 34.5707 54.1763 34.912C54.5176 35.2533 54.9016 35.424 55.3283 35.424ZM80.2463 36.192C79.9903 36.192 79.8623 36.0427 79.8623 35.744C79.8623 35.5307 79.9263 35.2747 80.0543 34.976C80.3956 34.2507 80.7796 33.2267 81.2063 31.904C81.6756 30.5813 82.2516 29.4507 82.9343 28.512C83.4036 27.5733 83.8303 26.656 84.2143 25.76C84.6409 24.8213 85.0463 23.8827 85.4303 22.944C85.4303 22.944 85.3876 22.9227 85.3022 22.88C85.2169 22.7947 85.1743 22.7093 85.1743 22.624C84.9609 22.4533 84.7049 22.2187 84.4062 21.92C84.1076 21.5787 84.0863 21.2373 84.3423 20.896C84.4276 20.8107 84.4703 20.768 84.4703 20.768C84.5129 20.768 84.5343 20.768 84.5343 20.768C84.5343 20.7253 84.5129 20.704 84.4703 20.704C84.4703 20.704 84.4703 20.6827 84.4703 20.64L84.4062 20.576C84.3636 20.576 84.3209 20.576 84.2783 20.576C84.2783 20.5333 84.2569 20.512 84.2143 20.512C84.0436 20.512 83.8516 20.5547 83.6383 20.64C83.4249 20.6827 83.2116 20.704 82.9983 20.704C82.7423 20.704 82.4009 20.8107 81.9743 21.024C81.5476 21.1947 81.1636 21.344 80.8223 21.472C80.6516 21.5147 80.5449 21.536 80.5023 21.536C80.5023 21.4933 80.4169 21.5147 80.2463 21.6C80.2036 21.6427 80.2036 21.5787 80.2463 21.408C80.3316 21.1947 80.3743 21.0453 80.3743 20.96C80.3743 20.9173 80.3529 20.896 80.3103 20.896C80.2249 20.896 80.0543 21.024 79.7983 21.28C79.5423 21.4933 79.3716 21.6213 79.2863 21.664C79.2436 21.7067 79.2223 21.7707 79.2223 21.856C79.2649 21.9413 79.2863 22.0267 79.2863 22.112C79.2863 22.24 79.1796 22.3893 78.9663 22.56C78.7529 22.688 78.6036 22.7947 78.5183 22.88C78.3476 23.008 78.1343 23.0933 77.8783 23.136C77.6649 23.136 77.4516 23.2213 77.2383 23.392C76.9823 23.5627 76.8542 23.6907 76.8542 23.776C76.8969 23.8613 76.7689 24.0107 76.4703 24.224C76.0863 24.5227 75.5529 24.9707 74.8703 25.568C74.2303 26.1653 73.7396 26.6987 73.3983 27.168C72.5876 28.1493 71.8409 29.28 71.1583 30.56C70.5183 31.84 70.1983 32.8427 70.1983 33.568C70.1983 34.1227 70.4329 34.4 70.9023 34.4C70.9876 34.4 71.0729 34.4 71.1583 34.4C71.2436 34.3573 71.3503 34.3147 71.4783 34.272L73.1423 33.312L73.5263 33.248V33.184L73.7823 33.376C73.8249 33.3333 73.8036 33.2693 73.7183 33.184C73.6756 33.056 73.6756 32.992 73.7183 32.992C73.7609 32.992 73.7823 33.0133 73.7823 33.056C73.8249 33.056 73.8676 33.056 73.9103 33.056L74.0383 32.864C74.0383 32.864 74.1023 32.8853 74.2303 32.928C74.4009 32.928 74.5289 32.8853 74.6143 32.8C74.7423 32.7573 74.7636 32.6933 74.6783 32.608C74.6356 32.5227 74.5716 32.4587 74.4863 32.416L74.9343 32.032C74.9769 31.9467 75.1476 31.8613 75.4463 31.776C76.1716 31.3067 76.7689 30.752 77.2383 30.112C77.7503 29.4293 78.3263 28.8107 78.9663 28.256H79.0303L79.7983 27.488L79.7343 27.296L80.5663 26.336H80.6943C80.7369 26.2507 80.8223 26.144 80.9503 26.016C81.1209 25.888 81.2276 25.7813 81.2703 25.696C81.3556 25.6533 81.5476 25.44 81.8463 25.056C82.1876 24.6293 82.5076 24.288 82.8063 24.032C83.1476 23.776 83.3396 23.648 83.3823 23.648C83.4249 23.648 83.4463 23.6693 83.4463 23.712C83.4463 23.84 83.3823 24.032 83.2543 24.288C83.1689 24.544 83.0836 24.7147 82.9983 24.8C82.6996 25.2693 82.3156 25.8027 81.8463 26.4C81.3769 26.9547 81.0996 27.296 81.0143 27.424C80.5023 27.9787 79.8836 28.7253 79.1583 29.664C78.4329 30.56 77.6436 31.456 76.7903 32.352C75.9369 33.248 75.0836 34.016 74.2303 34.656C73.4196 35.2533 72.6516 35.552 71.9263 35.552C71.2436 35.552 70.5183 35.3387 69.7503 34.912C68.9823 34.4853 68.5983 33.6747 68.5983 32.48C68.5983 32.096 68.6409 31.6693 68.7263 31.2C68.8543 30.688 69.0463 30.1547 69.3023 29.6C69.3023 29.6 69.3449 29.5573 69.4303 29.472C69.5156 29.344 69.5796 29.3013 69.6223 29.344C69.7076 29.216 69.7289 29.088 69.6863 28.96C69.6863 28.7893 69.6863 28.6827 69.6863 28.64L69.8143 28.512C69.8996 28.0427 70.2196 27.616 70.7743 27.232C71.3289 26.848 71.6276 26.5493 71.6703 26.336C71.7129 26.2933 71.7343 26.2293 71.7343 26.144L71.9903 25.312V25.056H72.2463L72.4383 24.8L72.5023 24.672C72.4169 24.6293 72.4383 24.5653 72.5663 24.48C72.7369 24.352 72.8223 24.288 72.8223 24.288C72.8649 24.2027 72.9076 24.1387 72.9503 24.096C73.0356 24.0533 73.0996 24.0107 73.1423 23.968H73.5903C73.6756 23.84 73.6329 23.776 73.4623 23.776C73.2916 23.776 73.2063 23.776 73.2063 23.776C73.2063 23.7333 73.2063 23.712 73.2063 23.712C73.2489 23.6693 73.2703 23.6267 73.2703 23.584L73.9743 23.008C74.1876 22.8373 74.4009 22.688 74.6143 22.56C74.8276 22.432 75.0196 22.2827 75.1903 22.112C75.3183 22.112 75.3396 22.176 75.2543 22.304C75.2969 22.3893 75.3396 22.3893 75.3823 22.304C75.4676 22.2187 75.5103 22.176 75.5103 22.176L75.8303 22.112V22.048C75.8303 21.9627 75.8516 21.8347 75.8943 21.664C75.9369 21.4933 75.9583 21.3867 75.9583 21.344C76.8543 20.6613 77.7929 20.064 78.7743 19.552C79.7556 18.9973 80.7156 18.72 81.6543 18.72C82.7636 18.72 83.7663 19.1467 84.6623 20L84.9823 20.192C85.0249 20.192 85.0463 20.1707 85.0463 20.128C85.1316 19.5307 85.6223 19.0827 86.5183 18.784C87.4569 18.4853 88.2889 18.336 89.0143 18.336C89.7823 18.336 90.1663 18.4427 90.1663 18.656C90.1663 18.7413 90.0383 18.8907 89.7823 19.104C89.6543 19.1893 89.4409 19.3813 89.1423 19.68C88.8436 19.9787 88.5449 20.3413 88.2463 20.768C88.2036 20.896 88.1396 21.024 88.0543 21.152C87.9689 21.28 87.8836 21.408 87.7983 21.536C87.7556 21.6213 87.6916 21.728 87.6063 21.856C87.5636 21.9413 87.4996 22.0267 87.4143 22.112C86.6889 23.3493 86.1129 24.3947 85.6863 25.248C85.2596 26.1013 84.7476 27.1893 84.1503 28.512C84.0649 28.768 84.0223 28.9173 84.0223 28.96C84.0223 29.3013 84.2143 29.472 84.5983 29.472C84.8543 29.472 85.1103 29.408 85.3663 29.28L86.0063 29.024C87.0303 28.0853 88.0969 27.296 89.2063 26.656C89.2489 26.656 89.2703 26.656 89.2703 26.656C89.3129 26.6133 89.3556 26.592 89.3983 26.592C89.5263 26.592 89.6116 26.6773 89.6543 26.848C89.6969 26.976 89.6543 27.0827 89.5263 27.168C88.2889 27.8507 87.1369 28.7253 86.0703 29.792C86.0276 29.8773 85.9849 29.9627 85.9423 30.048C85.8996 30.1333 85.8356 30.2187 85.7503 30.304C85.6223 30.3893 85.4943 30.5387 85.3663 30.752C85.2383 30.9653 85.1743 31.0933 85.1743 31.136C85.1316 31.264 85.0676 31.3067 84.9823 31.264C84.9396 31.2213 84.8116 31.2853 84.5983 31.456C84.5556 31.4987 84.5129 31.584 84.4703 31.712C84.4703 31.84 84.4489 31.9467 84.4062 32.032C84.3209 32.16 84.2356 32.2667 84.1503 32.352C84.0649 32.3947 84.0223 32.4373 84.0223 32.48C83.9796 32.6507 83.8943 32.7573 83.7663 32.8C83.6809 32.8 83.5956 32.8427 83.5103 32.928C83.4676 32.928 83.4463 32.9493 83.4463 32.992C83.4463 33.376 83.4036 33.5467 83.3183 33.504C83.2329 33.4613 83.1476 33.504 83.0623 33.632C82.9769 33.8027 82.8703 33.888 82.7423 33.888C82.4863 33.9733 82.3796 34.0373 82.4223 34.08C82.5076 34.1227 82.5716 34.1653 82.6143 34.208C82.6996 34.208 82.6356 34.272 82.4223 34.4C82.3369 34.4427 82.2516 34.5707 82.1663 34.784C82.0809 34.9547 81.9956 35.0827 81.9103 35.168C81.7823 35.2533 81.6543 35.3173 81.5263 35.36C81.3983 35.4027 81.2916 35.488 81.2063 35.616C80.8223 36 80.5023 36.192 80.2463 36.192ZM94.4833 36.256C94.4406 36.256 94.3766 36.2133 94.2913 36.128C94.2059 36.0853 94.1419 36.064 94.0993 36.064C93.9286 36.1067 93.7793 36.128 93.6513 36.128C93.5233 36.128 93.3953 36.128 93.2673 36.128C93.2246 36.128 93.1819 36.1067 93.1393 36.064C93.1393 36.0213 93.1179 36 93.0753 36C93.0326 36 93.0113 36 93.0113 36C93.0539 36.0427 93.0539 36.064 93.0113 36.064C93.0113 36.064 92.9686 36.0427 92.8833 36C92.7979 35.9573 92.7339 35.936 92.6913 35.936L92.6273 35.872C92.5419 35.872 92.4779 35.8507 92.4353 35.808C92.4353 35.7653 92.4139 35.744 92.3713 35.744L92.3073 35.808L92.2433 35.744C92.1579 35.7013 92.0299 35.6587 91.8593 35.616C91.7313 35.5307 91.6246 35.4667 91.5393 35.424C91.4539 35.424 91.3473 35.36 91.2193 35.232H91.0913C91.0059 35.104 90.8566 35.0187 90.6432 34.976C90.6432 34.9333 90.6219 34.8907 90.5793 34.848H90.5153C90.4299 34.72 90.3659 34.6773 90.3233 34.72C90.2806 34.6347 90.2166 34.5707 90.1313 34.528C90.0886 34.4427 90.0246 34.3787 89.9393 34.336C89.9393 34.1653 89.8966 34.08 89.8113 34.08C89.8113 33.9947 89.7259 33.8667 89.5553 33.696C89.4273 33.5253 89.3419 33.376 89.2993 33.248L89.2353 33.184C89.0646 33.0133 88.9366 32.736 88.8513 32.352C88.8086 32.1813 88.7659 32.1173 88.7233 32.16C88.7233 32.2027 88.7019 32.096 88.6593 31.84C88.6593 31.7973 88.6593 31.7333 88.6593 31.648C88.7019 31.52 88.7019 31.4347 88.6593 31.392C88.6593 31.3493 88.6379 31.328 88.5953 31.328C88.5953 31.2853 88.5953 31.2427 88.5953 31.2C88.5526 31.1573 88.5312 31.136 88.5312 31.136C88.5739 31.0933 88.5953 31.072 88.5953 31.072C88.5953 30.9867 88.5739 30.944 88.5312 30.944C88.5312 30.9013 88.5312 30.8587 88.5312 30.816V30.688C88.5312 30.4747 88.5739 30.3253 88.6593 30.24C88.6593 30.1547 88.6806 30.0907 88.7233 30.048C88.7659 30.0053 88.7873 29.9627 88.7873 29.92C88.7873 29.8347 88.8299 29.792 88.9153 29.792C89.0006 29.792 89.0433 29.7707 89.0433 29.728C89.0433 29.6427 89.0646 29.6 89.1073 29.6C89.1926 29.5573 89.2566 29.5147 89.2993 29.472C89.2993 29.4293 89.3206 29.3867 89.3633 29.344C89.4486 29.3013 89.4913 29.2587 89.4913 29.216C89.7046 29.088 89.9393 29.024 90.1953 29.024C90.7073 29.024 90.9633 29.152 90.9633 29.408C90.9633 29.4933 90.8353 29.6427 90.5793 29.856C90.5366 29.984 90.5153 30.0693 90.5153 30.112C90.5579 30.112 90.5366 30.1547 90.4513 30.24C90.4939 30.368 90.5153 30.5387 90.5153 30.752C90.4726 30.752 90.4513 30.816 90.4513 30.944C90.4939 31.0293 90.5153 31.072 90.5153 31.072C90.5153 31.1147 90.5366 31.2427 90.5793 31.456C90.6646 31.6693 90.7286 31.7973 90.7713 31.84C90.7713 31.84 90.8139 31.9467 90.8993 32.16C90.9846 32.3307 91.0273 32.4373 91.0273 32.48V32.608C91.1126 32.736 91.1553 32.8213 91.1553 32.864C91.1979 32.864 91.3686 32.9493 91.6673 33.12C91.7099 33.1627 91.7953 33.184 91.9233 33.184C92.1366 33.312 92.2859 33.4187 92.3713 33.504C92.4993 33.5893 92.7979 33.6747 93.2673 33.76C93.4379 33.8027 93.5019 33.8453 93.4593 33.888C93.4593 33.888 93.5446 33.888 93.7153 33.888C93.7153 33.888 93.7153 33.9093 93.7153 33.952C93.7153 33.952 93.7366 33.952 93.7793 33.952C93.8646 33.9093 93.9499 33.9093 94.0353 33.952C94.1206 33.952 94.2059 33.9307 94.2913 33.888H94.5473C94.8459 33.888 95.1659 33.8453 95.5073 33.76L96.4673 33.504C96.7659 33.4613 97.0433 33.376 97.2993 33.248C97.5553 33.12 97.7899 32.992 98.0033 32.864C98.0459 32.864 98.1739 32.8 98.3873 32.672C98.6006 32.5013 98.8566 32.3307 99.1553 32.16C99.1126 32.032 99.0913 31.8613 99.0913 31.648C99.0913 31.52 99.1553 31.456 99.2833 31.456C99.4113 31.4133 99.4966 31.3493 99.5393 31.264C99.4113 31.1787 99.2406 31.136 99.0273 31.136C98.8566 31.136 98.7926 31.072 98.8353 30.944C98.6646 30.0053 98.4086 29.152 98.0673 28.384C97.7686 27.616 97.4059 26.7627 96.9792 25.824C96.9366 25.696 96.8513 25.4827 96.7233 25.184C96.5953 24.8853 96.5099 24.6507 96.4673 24.48C96.4673 24.4373 96.5099 24.4373 96.5953 24.48C96.6806 24.48 96.7019 24.4587 96.6593 24.416C96.6166 24.2027 96.5739 23.9893 96.5312 23.776C96.5312 23.5627 96.5099 23.3707 96.4673 23.2C96.4246 23.1147 96.4673 23.0507 96.5953 23.008C96.7233 22.9653 96.7659 22.9013 96.7233 22.816C96.6806 22.7307 96.5953 22.7093 96.4673 22.752C96.3393 22.7947 96.2539 22.7733 96.2113 22.688L96.0193 21.92C96.0193 21.7067 95.9766 21.5787 95.8913 21.536C95.8486 21.4933 95.8913 21.408 96.0193 21.28C96.1046 21.2373 96.1473 21.1733 96.1473 21.088C96.1473 20.96 96.1686 20.8747 96.2113 20.832C96.4246 20.704 96.5099 20.5547 96.4673 20.384C96.4246 20.1707 96.4673 19.9787 96.5953 19.808C96.7233 19.6373 96.8299 19.488 96.9153 19.36C97.0006 19.1893 97.1286 19.0827 97.2993 19.04C97.4273 18.9547 97.4699 18.976 97.4273 19.104C97.3846 19.232 97.3846 19.296 97.4273 19.296C97.6406 19.296 97.7259 19.1893 97.6833 18.976C97.6406 18.7627 97.7046 18.5707 97.8753 18.4C98.1739 18.144 98.6219 17.9307 99.2193 17.76C99.8166 17.5893 100.265 17.4827 100.563 17.44C100.649 17.44 100.713 17.44 100.755 17.44C100.841 17.3973 100.905 17.376 100.947 17.376C101.161 17.376 101.374 17.3973 101.587 17.44C101.843 17.4827 102.078 17.5253 102.291 17.568C102.462 17.6107 102.718 17.7813 103.059 18.08C103.401 18.336 103.657 18.4 103.827 18.272C104.211 17.9307 104.617 17.632 105.043 17.376C105.513 17.12 105.811 17.0133 105.939 17.056C106.281 17.0987 106.579 17.2053 106.835 17.376C107.091 17.504 107.177 17.9307 107.091 18.656C107.049 18.912 106.942 19.1253 106.771 19.296C106.643 19.424 106.515 19.5947 106.387 19.808L105.939 20.448C105.769 20.7467 105.555 21.0453 105.299 21.344C105.086 21.6427 104.894 21.8347 104.723 21.92C104.553 22.0053 104.382 22.1547 104.211 22.368C104.083 22.5387 103.913 22.7093 103.699 22.88C103.486 23.0507 103.251 23.1787 102.995 23.264C102.782 23.3067 102.633 23.3493 102.547 23.392C102.419 23.4347 102.227 23.456 101.971 23.456C101.758 23.4133 101.694 23.328 101.779 23.2C101.865 23.1573 101.886 23.1147 101.843 23.072C101.801 22.9867 101.779 22.9227 101.779 22.88C101.779 22.7947 101.822 22.7307 101.907 22.688C102.035 22.6453 102.121 22.5813 102.163 22.496C102.206 22.4533 102.313 22.304 102.483 22.048C102.697 21.792 102.782 21.6427 102.739 21.6C102.739 21.472 102.782 21.3653 102.867 21.28C102.867 21.1947 102.867 21.1307 102.867 21.088C102.867 21.0027 102.91 20.9387 102.995 20.896C103.166 20.8533 103.251 20.7893 103.251 20.704V19.936C103.251 19.7653 103.23 19.5947 103.187 19.424C103.187 19.2533 103.145 19.104 103.059 18.976C102.718 18.5493 102.163 18.336 101.395 18.336C100.841 18.336 100.307 18.464 99.7953 18.72C99.2406 18.976 98.7713 19.4027 98.3873 20C98.0886 20.4267 97.9392 20.8747 97.9392 21.344C97.9392 21.6853 98.0033 22.0267 98.1313 22.368C98.3019 22.7093 98.4513 23.0293 98.5793 23.328C98.7073 23.6267 98.8779 23.9893 99.0913 24.416C99.3473 24.8427 99.5393 25.184 99.6673 25.44C99.8806 25.7813 100.115 26.1867 100.371 26.656C100.627 27.0827 100.819 27.488 100.947 27.872C100.99 27.9147 100.947 27.9573 100.819 28C100.734 28 100.713 28.0427 100.755 28.128C100.798 28.2133 100.862 28.256 100.947 28.256C101.033 28.256 101.097 28.2987 101.139 28.384C101.225 28.512 101.225 28.6187 101.139 28.704C101.097 28.7893 101.097 28.9173 101.139 29.088C101.139 29.1307 101.182 29.1733 101.267 29.216C101.353 29.2587 101.395 29.3013 101.395 29.344C101.609 29.8987 101.715 30.3467 101.715 30.688C102.099 30.4747 102.526 30.2187 102.995 29.92C103.465 29.6213 103.721 29.344 103.763 29.088C103.806 29.0027 103.87 28.9813 103.955 29.024C104.083 29.024 104.147 29.0667 104.147 29.152C104.105 29.4507 103.742 29.856 103.059 30.368C102.419 30.88 101.929 31.2427 101.587 31.456C101.63 31.4987 101.609 31.6053 101.523 31.776C101.438 31.9467 101.417 32.0747 101.459 32.16C101.459 32.2027 101.438 32.2667 101.395 32.352C101.353 32.3947 101.31 32.4587 101.267 32.544C101.267 32.7147 101.225 32.8427 101.139 32.928V33.056L100.947 33.184C100.905 33.2267 100.841 33.3333 100.755 33.504C100.713 33.632 100.649 33.7387 100.563 33.824H100.371C100.286 33.9093 100.243 34.016 100.243 34.144C100.158 34.272 99.9659 34.4213 99.6673 34.592C99.3686 34.72 99.1766 34.848 99.0913 34.976C99.0913 34.976 99.0699 34.976 99.0273 34.976C98.9846 34.976 98.9206 35.0187 98.8353 35.104H98.6433C98.6006 35.104 98.5579 35.1467 98.5153 35.232C98.4726 35.2747 98.4299 35.3173 98.3873 35.36C98.2593 35.36 98.1953 35.4027 98.1953 35.488C98.0246 35.488 97.8966 35.5093 97.8113 35.552L97.1713 35.68C97.0006 35.8507 96.8513 35.936 96.7233 35.936L96.6593 35.872C96.5739 35.9573 96.5099 36 96.4673 36H96.2113C96.1686 36 96.1259 36.0213 96.0833 36.064C96.0406 36.1067 95.9979 36.128 95.9553 36.128H95.8273C95.7846 36.128 95.7419 36.128 95.6993 36.128C95.6993 36.1707 95.6566 36.192 95.5713 36.192C95.4433 36.192 95.2513 36.192 94.9953 36.192C94.7819 36.192 94.6113 36.2133 94.4833 36.256ZM93.8433 35.68C93.8433 35.68 93.8859 35.68 93.9713 35.68C94.0993 35.6373 94.1846 35.616 94.2273 35.616C94.4406 35.616 94.6326 35.6373 94.8033 35.68C94.9739 35.68 95.1446 35.68 95.3153 35.68C95.4006 35.68 95.4433 35.6373 95.4433 35.552H95.5713C95.6993 35.424 95.7633 35.4027 95.7633 35.488C95.8059 35.5733 95.8699 35.5733 95.9553 35.488C96.0406 35.488 96.0833 35.4667 96.0833 35.424L96.3393 35.296C96.3819 35.296 96.4033 35.296 96.4033 35.296C96.4033 35.2533 96.4246 35.232 96.4673 35.232H96.5953C96.6806 35.232 96.7659 35.1893 96.8513 35.104C96.9366 35.0187 96.9792 34.976 96.9792 34.976C96.9792 34.976 97.0433 34.912 97.1713 34.784C97.1713 34.784 97.1926 34.784 97.2353 34.784C97.2779 34.7413 97.3206 34.72 97.3633 34.72C97.4486 34.6347 97.5339 34.592 97.6193 34.592C97.6193 34.5493 97.6619 34.5067 97.7473 34.464C97.8326 34.3787 97.8753 34.336 97.8753 34.336C97.9179 34.2933 97.9606 34.272 98.0033 34.272C98.0886 34.2293 98.1313 34.1867 98.1313 34.144C98.2166 34.144 98.3873 33.9947 98.6433 33.696C98.8993 33.3973 99.0699 33.0347 99.1553 32.608C99.1553 32.5227 99.0273 32.5867 98.7713 32.8C98.5153 32.9707 98.3873 33.056 98.3873 33.056C98.2593 33.0987 98.1313 33.184 98.0033 33.312C97.8753 33.3973 97.7686 33.44 97.6833 33.44C97.6406 33.44 97.5766 33.4827 97.4913 33.568C97.4486 33.6107 97.4059 33.632 97.3633 33.632C97.3206 33.632 97.2993 33.6533 97.2993 33.696C97.2993 33.696 97.2566 33.6747 97.1713 33.632C97.1286 33.7173 97.0006 33.8027 96.7873 33.888C96.5739 33.9733 96.4246 34.016 96.3393 34.016H96.1473L96.0833 34.08C96.0833 34.08 96.0619 34.1013 96.0193 34.144C95.9766 34.144 95.9339 34.144 95.8913 34.144L95.4433 34.208H95.3793C95.3366 34.208 95.2939 34.2293 95.2513 34.272C95.0806 34.272 94.8886 34.2933 94.6753 34.336C94.4619 34.3787 94.3339 34.4 94.2913 34.4H94.2273C94.2273 34.3573 94.2059 34.336 94.1633 34.336V34.4H93.8433C93.7153 34.4 93.5659 34.3787 93.3953 34.336C93.2673 34.2507 93.1606 34.208 93.0753 34.208C93.0326 34.208 93.0113 34.2293 93.0113 34.272C93.0113 34.272 92.9899 34.272 92.9473 34.272H92.8193C92.7766 34.272 92.7552 34.2507 92.7552 34.208H92.4353C92.4353 34.08 92.3926 34.0587 92.3073 34.144H92.2433C92.0726 34.144 91.9233 34.08 91.7953 33.952C91.7099 33.824 91.5606 33.76 91.3473 33.76L91.1553 33.568C91.1553 33.6107 91.1339 33.6533 91.0913 33.696C91.0913 33.696 91.0913 33.7173 91.0913 33.76C91.0913 33.76 91.1126 33.8027 91.1553 33.888C91.2406 33.9307 91.2833 33.9733 91.2833 34.016L91.4113 34.272L91.6673 34.592L91.7953 34.72C91.8379 34.7627 91.8593 34.784 91.8593 34.784C91.9019 34.784 91.9446 34.8267 91.9873 34.912C92.0726 34.912 92.1153 34.976 92.1153 35.104C92.8406 35.488 93.4166 35.68 93.8433 35.68ZM108.657 36.192C108.401 36.192 108.273 36.0427 108.273 35.744C108.273 35.5307 108.337 35.2747 108.465 34.976C108.806 34.2507 109.19 33.2267 109.617 31.904C110.086 30.5813 110.662 29.4507 111.345 28.512L114.545 21.92C114.289 21.92 114.033 21.984 113.777 22.112C113.563 22.24 113.457 22.3467 113.457 22.432C113.457 22.6027 113.222 22.7733 112.753 22.944C112.283 23.1147 112.027 23.2213 111.985 23.264C111.345 23.4347 110.747 23.6267 110.193 23.84C109.766 24.3093 109.339 24.7787 108.913 25.248C108.529 25.7173 108.166 26.1867 107.825 26.656C107.782 26.6987 107.739 26.72 107.697 26.72C107.313 27.1467 106.993 27.4667 106.737 27.68C106.481 27.8933 106.203 28.0853 105.905 28.256C105.734 28.384 105.563 28.4267 105.393 28.384C105.179 28.2987 105.158 28.2133 105.329 28.128C105.542 28.0427 105.883 27.744 106.353 27.232C106.822 26.72 107.185 26.336 107.441 26.08C107.654 25.952 107.718 25.952 107.633 26.08C107.59 26.208 107.654 26.1867 107.825 26.016L109.425 23.968L109.489 23.904C109.275 23.776 109.169 23.4347 109.169 22.88C109.169 22.4533 109.254 22.112 109.425 21.856C109.425 21.8133 109.467 21.792 109.553 21.792L110.897 21.408C111.025 21.408 111.11 21.3867 111.153 21.344C111.238 21.2587 111.323 21.152 111.409 21.024C111.537 20.8533 111.686 20.64 111.857 20.384L112.625 19.36L113.137 18.656C113.137 18.528 113.222 18.3787 113.393 18.208C113.606 17.9947 113.777 17.8453 113.905 17.76C114.075 17.504 114.182 17.312 114.225 17.184C114.31 17.0133 114.438 16.8 114.609 16.544C114.609 16.5013 114.673 16.48 114.801 16.48C114.929 16.4373 114.993 16.3947 114.993 16.352C115.035 15.9253 115.099 15.7333 115.185 15.776C115.313 15.776 115.377 15.712 115.377 15.584C115.377 15.456 115.462 15.3493 115.633 15.264L115.953 14.88C115.953 14.8373 116.017 14.752 116.145 14.624V14.56C116.145 14.4747 116.145 14.368 116.145 14.24C116.145 14.112 116.187 13.984 116.273 13.856C116.358 13.7707 116.422 13.728 116.465 13.728C116.507 13.728 116.529 13.728 116.529 13.728C116.529 13.6853 116.507 13.664 116.465 13.664C116.465 13.6213 116.465 13.6 116.465 13.6C116.465 13.4293 116.55 13.3227 116.721 13.28C116.891 13.2373 116.977 13.1733 116.977 13.088C117.062 12.4907 117.574 12.0427 118.513 11.744C119.451 11.4453 120.283 11.296 121.009 11.296C121.734 11.296 122.097 11.4027 122.097 11.616C122.097 11.7013 121.969 11.8507 121.713 12.064C121.585 12.1067 121.371 12.2987 121.073 12.64C120.774 12.9387 120.497 13.3013 120.241 13.728L119.729 14.496C119.686 14.5813 119.622 14.688 119.537 14.816C119.494 14.9013 119.43 14.9867 119.345 15.072C119.046 15.584 118.641 16.3093 118.129 17.248C117.659 18.144 117.147 19.1467 116.593 20.256L118.257 20.064C118.385 20.064 118.427 20.0853 118.385 20.128C118.385 20.1707 118.449 20.1707 118.577 20.128C118.79 20.128 118.939 20.1067 119.025 20.064C119.11 19.9787 119.259 19.9147 119.473 19.872C119.814 19.8293 120.198 19.808 120.625 19.808C121.094 19.7653 121.457 19.744 121.713 19.744C121.883 19.744 122.097 19.744 122.353 19.744C122.609 19.744 122.801 19.7653 122.929 19.808C123.014 19.808 123.035 19.8507 122.993 19.936C122.993 19.9787 123.014 20 123.057 20C123.142 20 123.206 19.9787 123.249 19.936C123.334 19.8933 123.419 19.872 123.505 19.872C123.547 19.8293 123.611 19.8293 123.697 19.872C123.825 19.872 123.91 19.872 123.953 19.872L124.593 20.064C124.849 20.1067 124.977 20.256 124.977 20.512C125.019 20.768 124.913 20.8533 124.657 20.768C124.486 20.6827 124.337 20.64 124.209 20.64H122.609C122.31 20.64 122.033 20.64 121.777 20.64C121.521 20.64 121.265 20.6613 121.009 20.704C120.923 20.7467 120.881 20.704 120.881 20.576C120.923 20.448 120.902 20.384 120.817 20.384C120.774 20.384 120.71 20.448 120.625 20.576C120.539 20.6613 120.475 20.704 120.433 20.704L120.113 20.896C119.43 21.0667 118.705 21.2587 117.937 21.472C117.169 21.6427 116.422 21.8347 115.697 22.048C115.057 23.3707 114.438 24.6293 113.841 25.824C113.286 26.976 112.859 27.872 112.561 28.512C112.475 28.768 112.433 28.9173 112.433 28.96C112.433 29.3013 112.625 29.472 113.009 29.472C113.265 29.472 113.521 29.408 113.777 29.28L114.417 29.024C115.441 28.0853 116.507 27.296 117.617 26.656C117.659 26.656 117.681 26.656 117.681 26.656C117.723 26.6133 117.766 26.592 117.809 26.592C117.937 26.592 118.022 26.6773 118.065 26.848C118.107 26.976 118.065 27.0827 117.937 27.168C116.699 27.8507 115.547 28.7253 114.481 29.792C114.438 29.8773 114.395 29.9627 114.353 30.048C114.31 30.1333 114.246 30.2187 114.161 30.304C114.075 30.3893 113.947 30.5387 113.777 30.752C113.649 30.9653 113.585 31.0933 113.585 31.136C113.542 31.264 113.478 31.3067 113.393 31.264C113.35 31.2213 113.222 31.2853 113.009 31.456C112.966 31.4987 112.923 31.584 112.881 31.712C112.881 31.84 112.859 31.9467 112.817 32.032C112.731 32.16 112.646 32.2667 112.561 32.352C112.475 32.3947 112.433 32.4373 112.433 32.48C112.39 32.6507 112.305 32.7573 112.177 32.8C112.091 32.8 112.006 32.8427 111.921 32.928C111.878 32.928 111.857 32.9493 111.857 32.992C111.857 33.376 111.814 33.5467 111.729 33.504C111.643 33.4613 111.579 33.504 111.537 33.632C111.366 33.8027 111.238 33.888 111.153 33.888C110.897 33.9733 110.79 34.0373 110.833 34.08C110.918 34.1227 110.982 34.1653 111.025 34.208C111.11 34.208 111.046 34.272 110.833 34.4C110.747 34.4427 110.662 34.5707 110.577 34.784C110.491 34.9547 110.406 35.0827 110.321 35.168C110.193 35.2533 110.065 35.3173 109.937 35.36C109.809 35.4027 109.702 35.488 109.617 35.616C109.233 36 108.913 36.192 108.657 36.192ZM112.305 21.152C112.475 21.1093 112.625 21.0667 112.753 21.024C112.923 20.9813 113.094 20.9173 113.265 20.832L115.185 20.512C115.697 19.488 116.145 18.5707 116.529 17.76C116.913 16.9067 117.19 16.288 117.361 15.904C117.361 15.904 117.318 15.8827 117.233 15.84C117.19 15.7547 117.169 15.6693 117.169 15.584C117.083 15.5413 116.977 15.4773 116.849 15.392C116.763 15.3067 116.678 15.2427 116.593 15.2L116.017 15.776L115.313 16.736C115.313 16.7787 115.249 16.8213 115.121 16.864C115.035 16.864 114.993 16.8853 114.993 16.928C114.993 17.056 114.929 17.184 114.801 17.312C114.715 17.44 114.63 17.4827 114.545 17.44L114.289 18.08C114.289 18.208 114.225 18.3147 114.097 18.4L113.649 18.976C113.649 19.0187 113.627 19.0613 113.585 19.104C113.585 19.104 113.585 19.1467 113.585 19.232C113.542 19.3173 113.478 19.424 113.393 19.552C113.307 19.68 113.201 19.808 113.073 19.936C113.03 19.936 113.009 19.9573 113.009 20C113.009 20 112.987 20 112.945 20L112.753 20.384C112.582 20.4693 112.475 20.512 112.433 20.512L112.369 20.64C112.369 20.896 112.347 21.0667 112.305 21.152ZM139.58 39.072C139.409 39.072 139.238 38.9867 139.068 38.816L138.62 38.688L138.492 38.752L138.62 38.56C138.62 38.432 138.534 38.368 138.364 38.368C138.193 38.368 138.065 38.368 137.98 38.368C138.022 38.0693 137.852 37.92 137.468 37.92C137.126 37.92 136.977 37.8347 137.02 37.664L136.764 37.6C136.721 37.3867 136.593 37.1947 136.38 37.024C136.465 36.9387 136.486 36.832 136.444 36.704C136.401 36.6187 136.38 36.5547 136.38 36.512C136.294 36.512 136.209 36.4693 136.124 36.384L136.06 36.192C135.974 36.192 135.846 36.1493 135.676 36.064C135.676 35.9787 135.654 35.8933 135.612 35.808C135.612 35.7227 135.612 35.6587 135.612 35.616H135.548C135.505 35.4453 135.441 35.36 135.356 35.36C135.313 35.36 135.249 35.3387 135.164 35.296C135.078 34.9547 135.057 34.6987 135.1 34.528C135.142 34.3573 135.142 34.1227 135.1 33.824L135.164 33.696C135.377 33.312 135.484 33.12 135.484 33.12C135.612 33.12 135.718 33.248 135.804 33.504C135.889 33.76 135.974 33.952 136.06 34.08C136.102 34.1227 136.166 34.1653 136.252 34.208C136.337 34.2507 136.358 34.2933 136.316 34.336L136.252 34.592L136.38 34.528C136.38 34.6987 136.422 34.8267 136.508 34.912C136.55 35.0827 136.636 35.36 136.764 35.744C136.892 36.0853 137.105 36.2347 137.404 36.192C137.404 36.32 137.468 36.448 137.596 36.576C137.766 36.704 137.916 36.7467 138.044 36.704C138.086 36.7893 138.193 36.8533 138.364 36.896C138.534 36.9387 138.662 36.9813 138.748 37.024C138.961 36.9813 139.174 36.96 139.388 36.96C139.644 37.0027 139.878 37.0027 140.092 36.96L141.5 36.704C141.542 36.6613 141.756 36.5547 142.14 36.384C142.524 36.2133 142.801 36.0427 142.972 35.872H143.036C143.249 35.872 143.462 35.8293 143.676 35.744C143.932 35.616 144.145 35.5093 144.316 35.424C144.444 35.3813 144.55 35.3173 144.636 35.232C144.721 35.104 144.828 35.0187 144.956 34.976L145.532 34.656C145.66 34.5707 145.788 34.5493 145.916 34.592C146.086 34.592 146.236 34.5067 146.364 34.336C146.492 34.2507 146.598 34.144 146.684 34.016C146.812 33.888 146.918 33.7813 147.004 33.696H147.196C147.324 33.4827 147.409 33.312 147.452 33.184L148.668 32.736C148.753 32.6507 148.817 32.5653 148.86 32.48C148.945 32.352 149.009 32.2453 149.052 32.16C149.137 32.0747 149.244 32.0107 149.372 31.968C149.5 31.8827 149.564 31.7547 149.564 31.584C149.777 31.4987 149.969 31.392 150.14 31.264C150.353 31.136 150.502 30.9867 150.588 30.816C150.673 30.7733 150.929 30.5813 151.356 30.24C151.782 29.856 152.273 29.4293 152.828 28.96C153.382 28.4907 153.873 28.0853 154.3 27.744C154.726 27.36 154.961 27.1467 155.004 27.104L155.26 26.848L153.276 26.08C152.166 25.6533 151.014 25.312 149.82 25.056C148.668 24.7573 147.409 24.544 146.044 24.416C145.745 24.3733 145.532 24.288 145.404 24.16C145.318 23.9893 145.276 23.6907 145.276 23.264C145.276 22.7093 145.489 22.3467 145.916 22.176C146.342 21.9627 146.833 21.856 147.388 21.856C147.985 21.856 148.454 21.8987 148.796 21.984C149.18 22.0693 149.713 22.1333 150.396 22.176C150.481 22.176 150.801 22.24 151.356 22.368C151.91 22.4533 152.508 22.5387 153.148 22.624C153.233 22.624 153.574 22.6453 154.172 22.688C154.812 22.7307 155.366 22.752 155.836 22.752C156.39 22.7093 156.966 22.688 157.564 22.688C158.161 22.688 158.758 22.688 159.356 22.688L160.38 21.536C160.764 21.1093 161.126 20.6827 161.468 20.256C161.852 19.8293 162.257 19.424 162.684 19.04C162.812 18.912 162.94 18.8053 163.068 18.72C163.238 18.6347 163.388 18.5067 163.516 18.336L164.092 17.632C164.177 17.5467 164.262 17.4827 164.348 17.44C164.476 17.3973 164.561 17.3547 164.604 17.312C164.774 17.1413 164.924 16.9493 165.052 16.736C165.18 16.5227 165.286 16.3307 165.372 16.16C165.457 16.16 165.606 16.032 165.82 15.776C166.033 15.52 166.161 15.3493 166.204 15.264C166.417 15.1787 166.566 15.0507 166.652 14.88C166.78 14.6667 166.886 14.4533 166.972 14.24C167.1 14.1547 167.228 14.0693 167.356 13.984C167.526 13.856 167.654 13.728 167.74 13.6C167.825 13.472 167.889 13.3227 167.932 13.152C168.017 12.9813 168.145 12.8747 168.316 12.832C168.444 12.4907 168.721 12.1067 169.148 11.68C169.617 11.2107 169.873 10.8907 169.916 10.72C170.129 10.6773 170.321 10.5493 170.492 10.336C170.662 10.08 170.833 9.90933 171.004 9.824C171.174 9.35467 171.494 8.94933 171.964 8.608C172.433 8.224 172.689 7.81867 172.732 7.392C172.774 7.30666 172.838 7.24266 172.924 7.2C173.009 7.15733 173.073 7.11466 173.116 7.072C173.244 6.98667 173.329 6.88 173.372 6.752C173.457 6.58133 173.564 6.432 173.692 6.304C173.734 6.21867 173.777 6.15467 173.82 6.112C173.905 6.06933 173.969 6.02667 174.012 5.984C173.969 5.984 173.82 5.94133 173.564 5.856C173.478 5.856 173.308 5.856 173.052 5.856C172.796 5.81333 172.518 5.792 172.22 5.792C171.238 5.792 170.577 5.83466 170.236 5.92C169.425 5.96267 168.721 6.02667 168.124 6.112C167.569 6.19733 166.908 6.34667 166.14 6.56C166.14 6.56 166.118 6.53867 166.076 6.496C166.033 6.45333 165.99 6.432 165.948 6.432L165.884 6.368C165.756 6.32533 165.734 6.34667 165.82 6.432C165.905 6.51733 165.884 6.58133 165.756 6.624C165.5 6.66666 165.201 6.73066 164.86 6.816C164.561 6.90133 164.284 6.944 164.028 6.944C163.9 6.98667 163.772 7.008 163.644 7.008C163.516 6.96533 163.388 6.944 163.26 6.944C162.833 6.98667 162.406 7.136 161.98 7.392C161.596 7.60533 161.19 7.75466 160.764 7.84L159.996 8.032C159.697 8.11733 159.462 8.20266 159.292 8.288C159.164 8.33067 158.929 8.39467 158.588 8.48L158.012 8.672C157.884 8.71467 157.734 8.75733 157.564 8.8C157.436 8.84267 157.286 8.88533 157.116 8.928C156.774 9.056 156.412 9.20533 156.028 9.376C155.686 9.54667 155.345 9.67466 155.004 9.76L153.852 10.08C153.724 10.1227 153.532 10.144 153.276 10.144C152.934 10.144 152.7 10.1013 152.572 10.016C152.401 9.93067 152.188 9.696 151.932 9.312C151.718 8.88533 151.633 8.58667 151.676 8.416C151.932 8.032 152.444 7.73333 153.212 7.52C154.022 7.264 154.534 7.11466 154.748 7.072C154.79 7.02933 154.982 6.96533 155.324 6.88C155.708 6.752 156.07 6.64533 156.412 6.56C156.753 6.47467 156.924 6.47467 156.924 6.56C156.966 6.60267 156.732 6.77333 156.22 7.072C155.708 7.328 155.43 7.47733 155.388 7.52C155.388 7.56266 155.345 7.62666 155.26 7.712C155.217 7.79733 155.217 7.81867 155.26 7.776L156.732 7.392C156.817 7.34933 156.988 7.328 157.244 7.328H157.692C157.99 7.328 158.182 7.28533 158.268 7.2C158.353 7.02933 158.438 6.944 158.524 6.944C158.737 6.85866 159.057 6.79467 159.484 6.752C159.953 6.66667 160.252 6.58133 160.38 6.496C160.593 6.45333 160.828 6.432 161.084 6.432C161.34 6.38933 161.574 6.32533 161.788 6.24C161.916 6.19733 162.342 6.112 163.068 5.984C163.836 5.856 164.604 5.728 165.372 5.6C166.14 5.472 166.566 5.408 166.652 5.408H166.716C166.929 5.408 167.142 5.38667 167.356 5.344C167.569 5.25866 167.697 5.344 167.74 5.6C167.782 5.6 167.804 5.62133 167.804 5.664C167.804 5.664 167.825 5.664 167.868 5.664C168.124 5.664 168.358 5.55733 168.572 5.344C168.657 5.30133 168.87 5.25867 169.212 5.216C169.553 5.17333 169.766 5.152 169.852 5.152C170.193 5.10933 170.47 5.088 170.684 5.088C170.897 5.088 171.089 5.088 171.26 5.088C171.601 5.088 171.9 5.10933 172.156 5.152C172.454 5.152 172.817 5.17333 173.244 5.216C173.414 5.25867 173.628 5.28 173.884 5.28C174.182 5.28 174.438 5.30133 174.652 5.344L174.908 5.024C175.206 4.85333 175.462 4.768 175.676 4.768C175.846 4.768 175.932 4.85333 175.932 5.024C175.932 5.49333 175.697 5.92 175.228 6.304C175.185 6.34667 175.078 6.41066 174.908 6.496C174.737 6.53867 174.63 6.60267 174.588 6.688C174.374 7.24266 173.948 7.75467 173.308 8.224C172.71 8.69333 172.39 9.03467 172.348 9.248C172.177 9.33333 171.985 9.46133 171.772 9.632C171.558 9.80267 171.43 9.97333 171.388 10.144C171.174 10.4 171.004 10.6773 170.876 10.976C170.748 11.232 170.556 11.488 170.3 11.744C170.172 11.872 169.958 12.128 169.66 12.512C169.361 12.896 169.062 13.28 168.764 13.664C168.465 14.0053 168.252 14.176 168.124 14.176C167.996 14.304 167.932 14.3893 167.932 14.432C167.974 14.4747 167.889 14.56 167.676 14.688C167.462 14.9013 167.292 15.136 167.164 15.392C166.908 15.4347 166.694 15.6053 166.524 15.904C166.396 16.16 166.268 16.3947 166.14 16.608C165.969 16.8213 165.777 17.0133 165.564 17.184C165.393 17.3547 165.222 17.5467 165.052 17.76C164.881 17.8027 164.689 17.9947 164.476 18.336C164.305 18.6347 164.177 18.848 164.092 18.976C163.836 19.2747 163.601 19.5093 163.388 19.68C163.217 19.8507 163.132 20.1493 163.132 20.576C163.046 20.6613 162.918 20.7893 162.748 20.96C162.577 21.1307 162.47 21.28 162.428 21.408C162.342 21.5787 162.214 21.728 162.044 21.856C161.916 21.984 161.809 22.1333 161.724 22.304L161.532 22.432L161.468 22.56C161.98 22.56 162.492 22.56 163.004 22.56C163.516 22.56 164.006 22.5387 164.476 22.496L166.588 22.368C166.673 22.368 166.801 22.432 166.972 22.56C167.185 22.6453 167.313 22.6667 167.356 22.624C167.484 22.624 167.526 22.56 167.484 22.432C167.441 22.2613 167.505 22.176 167.676 22.176C168.06 22.1333 168.529 22.0907 169.084 22.048C169.681 21.9627 170.257 21.856 170.812 21.728L171.388 19.936L171.964 18.08C172.049 17.7813 172.177 17.5893 172.348 17.504C172.518 17.4187 172.625 17.2907 172.668 17.12C172.71 17.0347 172.668 16.9707 172.54 16.928C172.412 16.8427 172.412 16.7147 172.54 16.544C172.924 15.3493 173.414 14.1547 174.012 12.96C174.609 11.7653 175.121 10.6773 175.548 9.696V9.632C175.676 9.46133 175.782 9.33333 175.868 9.248C175.996 9.16267 176.081 9.056 176.124 8.928C176.081 8.88533 176.081 8.84267 176.124 8.8C176.166 8.75733 176.145 8.71467 176.06 8.672C176.358 8.37333 176.529 7.98933 176.572 7.52L177.212 6.176L178.172 4.64C178.214 4.512 178.321 4.36267 178.492 4.192C178.833 3.808 179.132 3.616 179.388 3.616C179.772 3.616 179.793 3.85066 179.452 4.32L179.324 4.64L178.876 5.216L178.62 5.92C178.193 6.688 177.788 7.52 177.404 8.416C177.02 9.312 176.593 10.2507 176.124 11.232V11.488C176.124 11.7013 176.06 11.8507 175.932 11.936C175.846 12.0213 175.676 12.1067 175.42 12.192C175.548 12.448 175.569 12.7253 175.484 13.024L175.036 14.304C174.865 14.7307 174.63 15.2427 174.332 15.84C174.033 16.4373 173.862 16.9067 173.82 17.248C173.393 18.6133 173.073 19.9147 172.86 21.152C172.988 21.1093 173.116 21.0667 173.244 21.024C173.372 20.9813 173.478 20.9387 173.564 20.896C173.777 20.8107 173.926 20.768 174.012 20.768C174.14 20.768 174.31 20.7467 174.524 20.704C174.78 20.6187 175.036 20.512 175.292 20.384C175.42 20.2987 175.59 20.256 175.804 20.256C176.017 20.256 176.124 20.32 176.124 20.448C176.124 20.6187 175.932 20.8107 175.548 21.024L174.204 21.792C173.862 21.8773 173.585 21.92 173.372 21.92C173.286 21.92 173.073 21.9627 172.732 22.048L172.476 23.52L172.54 24.48C172.497 24.608 172.305 24.672 171.964 24.672C171.665 24.672 171.622 24.864 171.836 25.248C172.006 25.4613 172.113 25.6107 172.156 25.696C172.198 25.7387 172.177 25.9307 172.092 26.272C171.921 26.784 171.772 27.4667 171.644 28.32C171.558 29.1733 171.494 29.8773 171.452 30.432C171.452 30.4747 171.409 30.5813 171.324 30.752C171.281 30.9227 171.238 31.0507 171.196 31.136C171.196 31.1787 171.217 31.2 171.26 31.2C171.345 31.2 171.388 31.2427 171.388 31.328C171.473 32.224 171.473 33.056 171.388 33.824L171.26 35.296C171.26 35.3387 171.217 35.424 171.132 35.552C171.046 35.68 171.025 35.7867 171.068 35.872C170.94 36.3413 170.705 36.6613 170.364 36.832C170.022 37.0453 169.681 37.152 169.34 37.152C168.7 37.152 168.273 37.0453 168.06 36.832L167.74 36.576V35.168C167.484 34.9547 167.228 34.7413 166.972 34.528C166.716 34.3147 166.46 34.1227 166.204 33.952C165.734 33.6107 165.265 33.312 164.796 33.056C164.369 32.7573 163.921 32.4373 163.452 32.096C162.94 31.712 162.428 31.3067 161.916 30.88C161.446 30.4533 160.934 30.048 160.38 29.664C159.782 29.2373 159.164 28.8533 158.524 28.512C157.884 28.128 157.244 27.7867 156.604 27.488C156.433 27.6587 156.113 27.9787 155.644 28.448C155.174 28.8747 154.726 29.3013 154.3 29.728C153.873 30.112 153.617 30.3253 153.532 30.368C153.489 30.4533 153.425 30.5387 153.34 30.624C153.297 30.7093 153.233 30.7947 153.148 30.88C153.062 30.9227 152.934 30.9867 152.764 31.072C152.636 31.1573 152.572 31.2427 152.572 31.328C152.486 31.4133 152.358 31.4987 152.188 31.584C152.06 31.6267 151.974 31.7333 151.932 31.904L151.996 31.968C151.825 32.0107 151.74 32.0533 151.74 32.096C151.782 32.1387 151.804 32.224 151.804 32.352C151.761 32.3947 151.612 32.48 151.356 32.608C151.142 32.736 150.993 32.8213 150.908 32.864C150.524 33.0773 150.246 33.248 150.076 33.376C149.948 33.504 149.777 33.76 149.564 34.144C149.436 34.2293 149.158 34.4 148.732 34.656C148.305 34.912 148.092 35.0827 148.092 35.168C147.921 35.2107 147.814 35.296 147.772 35.424C147.729 35.552 147.665 35.6587 147.58 35.744C147.537 35.8293 147.452 35.8933 147.324 35.936C147.196 35.9787 147.11 36.064 147.068 36.192L146.94 36.256H146.876C146.748 36.256 146.62 36.32 146.492 36.448C146.406 36.576 146.321 36.6827 146.236 36.768C145.766 36.8107 145.404 36.9387 145.148 37.152C144.934 37.408 144.636 37.6213 144.252 37.792C143.74 38.0053 143.206 38.2187 142.652 38.432C142.097 38.6453 141.521 38.7947 140.924 38.88C140.753 38.9653 140.625 39.0293 140.54 39.072C140.497 39.1573 140.369 39.1573 140.156 39.072C140.241 38.944 140.22 38.88 140.092 38.88C139.921 39.008 139.75 39.072 139.58 39.072ZM167.868 34.336V34.144C167.868 34.016 167.932 33.888 168.06 33.76C168.017 33.6747 167.974 33.632 167.932 33.632C167.932 33.5893 167.932 33.5467 167.932 33.504L169.276 27.168C169.446 26.4 169.638 25.632 169.852 24.864C170.108 24.0533 170.364 23.2427 170.62 22.432C170.534 22.4747 170.449 22.496 170.364 22.496C170.15 22.5387 169.98 22.56 169.852 22.56C169.724 22.56 169.51 22.6027 169.212 22.688C168.785 22.7733 168.294 22.9013 167.74 23.072C167.228 23.2427 166.673 23.3493 166.076 23.392C165.649 23.4347 165.308 23.4347 165.052 23.392C164.838 23.3493 164.518 23.3493 164.092 23.392C163.878 23.4347 163.537 23.4987 163.068 23.584C162.598 23.6267 162.236 23.648 161.98 23.648L159.996 23.904C159.996 23.904 159.974 23.9253 159.932 23.968C159.932 24.0107 159.932 24.0533 159.932 24.096C159.846 24.1813 159.676 24.3307 159.42 24.544C159.206 24.7147 159.078 24.8853 159.036 25.056L158.844 25.12C158.801 25.1627 158.716 25.2693 158.588 25.44C158.502 25.568 158.438 25.6747 158.396 25.76C158.225 25.8027 158.076 25.9093 157.948 26.08C157.82 26.2507 157.713 26.4213 157.628 26.592C157.457 26.592 157.329 26.6347 157.244 26.72C158.268 27.2747 159.185 27.8293 159.996 28.384C160.166 28.512 160.294 28.64 160.38 28.768C160.465 28.896 160.593 29.024 160.764 29.152C161.148 29.408 161.51 29.6213 161.852 29.792C162.236 29.92 162.577 30.112 162.876 30.368L166.78 33.312C166.908 33.3973 167.078 33.5467 167.292 33.76C167.505 33.9307 167.697 34.1227 167.868 34.336ZM156.028 26.08C156.369 25.7387 156.71 25.3973 157.052 25.056C157.393 24.7147 157.734 24.3733 158.076 24.032L152.892 24.352C152.294 24.3947 151.868 24.416 151.612 24.416C151.398 24.416 151.078 24.4587 150.652 24.544C151.206 24.672 151.74 24.8213 152.252 24.992C152.764 25.12 153.276 25.2693 153.788 25.44C154.001 25.5253 154.193 25.6107 154.364 25.696C154.534 25.7813 154.705 25.8667 154.876 25.952C154.961 25.9947 155.046 25.9733 155.132 25.888C155.217 25.76 155.281 25.7173 155.324 25.76L156.028 26.08ZM179.094 36.192C178.838 36.192 178.71 36.0427 178.71 35.744C178.71 35.5307 178.774 35.2747 178.902 34.976C179.244 34.2507 179.628 33.2267 180.054 31.904C180.524 30.5813 181.1 29.4507 181.782 28.512L184.982 21.92C184.726 21.92 184.47 21.984 184.214 22.112C184.001 22.24 183.894 22.3467 183.894 22.432C183.894 22.6027 183.66 22.7733 183.19 22.944C182.721 23.1147 182.465 23.2213 182.422 23.264C181.782 23.4347 181.185 23.6267 180.63 23.84C180.204 24.3093 179.777 24.7787 179.35 25.248C178.966 25.7173 178.604 26.1867 178.262 26.656C178.22 26.6987 178.177 26.72 178.134 26.72C177.75 27.1467 177.43 27.4667 177.174 27.68C176.918 27.8933 176.641 28.0853 176.342 28.256C176.172 28.384 176.001 28.4267 175.83 28.384C175.617 28.2987 175.596 28.2133 175.766 28.128C175.98 28.0427 176.321 27.744 176.79 27.232C177.26 26.72 177.622 26.336 177.878 26.08C178.092 25.952 178.156 25.952 178.07 26.08C178.028 26.208 178.092 26.1867 178.262 26.016L179.862 23.968L179.926 23.904C179.713 23.776 179.606 23.4347 179.606 22.88C179.606 22.4533 179.692 22.112 179.862 21.856C179.862 21.8133 179.905 21.792 179.99 21.792L181.334 21.408C181.462 21.408 181.548 21.3867 181.59 21.344C181.676 21.2587 181.761 21.152 181.846 21.024C181.974 20.8533 182.124 20.64 182.294 20.384L183.062 19.36L183.574 18.656C183.574 18.528 183.66 18.3787 183.83 18.208C184.044 17.9947 184.214 17.8453 184.342 17.76C184.513 17.504 184.62 17.312 184.662 17.184C184.748 17.0133 184.876 16.8 185.046 16.544C185.046 16.5013 185.11 16.48 185.238 16.48C185.366 16.4373 185.43 16.3947 185.43 16.352C185.473 15.9253 185.537 15.7333 185.622 15.776C185.75 15.776 185.814 15.712 185.814 15.584C185.814 15.456 185.9 15.3493 186.07 15.264L186.39 14.88C186.39 14.8373 186.454 14.752 186.582 14.624V14.56C186.582 14.4747 186.582 14.368 186.582 14.24C186.582 14.112 186.625 13.984 186.71 13.856C186.796 13.7707 186.86 13.728 186.902 13.728C186.945 13.728 186.966 13.728 186.966 13.728C186.966 13.6853 186.945 13.664 186.902 13.664C186.902 13.6213 186.902 13.6 186.902 13.6C186.902 13.4293 186.988 13.3227 187.158 13.28C187.329 13.2373 187.414 13.1733 187.414 13.088C187.5 12.4907 188.012 12.0427 188.95 11.744C189.889 11.4453 190.721 11.296 191.446 11.296C192.172 11.296 192.534 11.4027 192.534 11.616C192.534 11.7013 192.406 11.8507 192.15 12.064C192.022 12.1067 191.809 12.2987 191.51 12.64C191.212 12.9387 190.934 13.3013 190.678 13.728L190.166 14.496C190.124 14.5813 190.06 14.688 189.974 14.816C189.932 14.9013 189.868 14.9867 189.782 15.072C189.484 15.584 189.078 16.3093 188.566 17.248C188.097 18.144 187.585 19.1467 187.03 20.256L188.694 20.064C188.822 20.064 188.865 20.0853 188.822 20.128C188.822 20.1707 188.886 20.1707 189.014 20.128C189.228 20.128 189.377 20.1067 189.462 20.064C189.548 19.9787 189.697 19.9147 189.91 19.872C190.252 19.8293 190.636 19.808 191.062 19.808C191.532 19.7653 191.894 19.744 192.15 19.744C192.321 19.744 192.534 19.744 192.79 19.744C193.046 19.744 193.238 19.7653 193.366 19.808C193.452 19.808 193.473 19.8507 193.43 19.936C193.43 19.9787 193.452 20 193.494 20C193.58 20 193.644 19.9787 193.686 19.936C193.772 19.8933 193.857 19.872 193.942 19.872C193.985 19.8293 194.049 19.8293 194.134 19.872C194.262 19.872 194.348 19.872 194.39 19.872L195.03 20.064C195.286 20.1067 195.414 20.256 195.414 20.512C195.457 20.768 195.35 20.8533 195.094 20.768C194.924 20.6827 194.774 20.64 194.646 20.64H193.046C192.748 20.64 192.47 20.64 192.214 20.64C191.958 20.64 191.702 20.6613 191.446 20.704C191.361 20.7467 191.318 20.704 191.318 20.576C191.361 20.448 191.34 20.384 191.254 20.384C191.212 20.384 191.148 20.448 191.062 20.576C190.977 20.6613 190.913 20.704 190.87 20.704L190.55 20.896C189.868 21.0667 189.142 21.2587 188.374 21.472C187.606 21.6427 186.86 21.8347 186.134 22.048C185.494 23.3707 184.876 24.6293 184.278 25.824C183.724 26.976 183.297 27.872 182.998 28.512C182.913 28.768 182.87 28.9173 182.87 28.96C182.87 29.3013 183.062 29.472 183.446 29.472C183.702 29.472 183.958 29.408 184.214 29.28L184.854 29.024C185.878 28.0853 186.945 27.296 188.054 26.656C188.097 26.656 188.118 26.656 188.118 26.656C188.161 26.6133 188.204 26.592 188.246 26.592C188.374 26.592 188.46 26.6773 188.502 26.848C188.545 26.976 188.502 27.0827 188.374 27.168C187.137 27.8507 185.985 28.7253 184.918 29.792C184.876 29.8773 184.833 29.9627 184.79 30.048C184.748 30.1333 184.684 30.2187 184.598 30.304C184.513 30.3893 184.385 30.5387 184.214 30.752C184.086 30.9653 184.022 31.0933 184.022 31.136C183.98 31.264 183.916 31.3067 183.83 31.264C183.788 31.2213 183.66 31.2853 183.446 31.456C183.404 31.4987 183.361 31.584 183.318 31.712C183.318 31.84 183.297 31.9467 183.254 32.032C183.169 32.16 183.084 32.2667 182.998 32.352C182.913 32.3947 182.87 32.4373 182.87 32.48C182.828 32.6507 182.742 32.7573 182.614 32.8C182.529 32.8 182.444 32.8427 182.358 32.928C182.316 32.928 182.294 32.9493 182.294 32.992C182.294 33.376 182.252 33.5467 182.166 33.504C182.081 33.4613 182.017 33.504 181.974 33.632C181.804 33.8027 181.676 33.888 181.59 33.888C181.334 33.9733 181.228 34.0373 181.27 34.08C181.356 34.1227 181.42 34.1653 181.462 34.208C181.548 34.208 181.484 34.272 181.27 34.4C181.185 34.4427 181.1 34.5707 181.014 34.784C180.929 34.9547 180.844 35.0827 180.758 35.168C180.63 35.2533 180.502 35.3173 180.374 35.36C180.246 35.4027 180.14 35.488 180.054 35.616C179.67 36 179.35 36.192 179.094 36.192ZM182.742 21.152C182.913 21.1093 183.062 21.0667 183.19 21.024C183.361 20.9813 183.532 20.9173 183.702 20.832L185.622 20.512C186.134 19.488 186.582 18.5707 186.966 17.76C187.35 16.9067 187.628 16.288 187.798 15.904C187.798 15.904 187.756 15.8827 187.67 15.84C187.628 15.7547 187.606 15.6693 187.606 15.584C187.521 15.5413 187.414 15.4773 187.286 15.392C187.201 15.3067 187.116 15.2427 187.03 15.2L186.454 15.776L185.75 16.736C185.75 16.7787 185.686 16.8213 185.558 16.864C185.473 16.864 185.43 16.8853 185.43 16.928C185.43 17.056 185.366 17.184 185.238 17.312C185.153 17.44 185.068 17.4827 184.982 17.44L184.726 18.08C184.726 18.208 184.662 18.3147 184.534 18.4L184.086 18.976C184.086 19.0187 184.065 19.0613 184.022 19.104C184.022 19.104 184.022 19.1467 184.022 19.232C183.98 19.3173 183.916 19.424 183.83 19.552C183.745 19.68 183.638 19.808 183.51 19.936C183.468 19.936 183.446 19.9573 183.446 20C183.446 20 183.425 20 183.382 20L183.19 20.384C183.02 20.4693 182.913 20.512 182.87 20.512L182.806 20.64C182.806 20.896 182.785 21.0667 182.742 21.152ZM191.418 36.192C191.162 36.192 191.034 36.0427 191.034 35.744C191.034 35.5307 191.098 35.2747 191.226 34.976C191.568 34.2507 191.952 33.2267 192.378 31.904C192.848 30.5813 193.424 29.4507 194.106 28.512C194.32 28.0427 194.64 27.4667 195.066 26.784C195.536 26.0587 195.984 25.2053 196.41 24.224V23.904C196.41 23.776 196.41 23.6693 196.41 23.584C196.453 23.456 196.496 23.328 196.538 23.2C196.709 22.8587 196.858 22.624 196.986 22.496C197.157 22.368 197.328 22.1333 197.498 21.792C197.498 21.7067 197.498 21.6213 197.498 21.536C197.541 21.4507 197.584 21.3653 197.626 21.28C197.541 21.3653 197.52 21.3013 197.562 21.088C197.477 21.088 197.562 20.8747 197.818 20.448C197.989 20.064 198.117 19.8507 198.202 19.808H198.266C198.437 19.552 198.586 19.3387 198.714 19.168C198.842 18.9547 198.885 18.8267 198.842 18.784V18.656C198.842 18.3573 198.928 18.08 199.098 17.824C199.312 17.568 199.504 17.2907 199.674 16.992C199.802 16.8213 199.909 16.736 199.994 16.736C200.08 16.736 200.122 16.7573 200.122 16.8C200.165 16.8 200.208 16.8 200.25 16.8C200.378 16.8 200.442 16.6933 200.442 16.48C200.442 16.3947 200.421 16.288 200.378 16.16C200.378 16.032 200.357 15.8827 200.314 15.712C200.357 15.4987 200.528 15.328 200.826 15.2L201.018 15.136C201.232 14.24 201.488 13.6427 201.786 13.344C201.872 13.2587 201.957 13.1733 202.042 13.088C202.128 13.0027 202.213 12.9173 202.298 12.832C202.81 12.2773 203.194 11.68 203.45 11.04C203.536 10.8693 203.642 10.7413 203.77 10.656C203.941 10.528 204.09 10.3787 204.218 10.208C204.304 10.08 204.325 9.952 204.282 9.824C204.282 9.65333 204.304 9.504 204.346 9.376C204.56 9.03467 204.709 8.84267 204.794 8.8C204.88 8.75733 204.965 8.71467 205.05 8.672C205.178 8.58667 205.392 8.39467 205.69 8.096C205.818 7.88267 205.946 7.66933 206.074 7.456C206.245 7.24266 206.416 7.02933 206.586 6.816C206.842 6.51733 207.12 6.304 207.418 6.176C207.717 6.048 208.016 5.856 208.314 5.6C208.4 5.51466 208.442 5.38666 208.442 5.216C208.442 5.00266 208.485 4.85333 208.57 4.768C210.064 3.57333 211.664 2.57066 213.37 1.76C215.12 0.949332 216.464 0.543999 217.402 0.543999C217.744 0.543999 218.064 0.565332 218.362 0.607998C218.704 0.650664 219.024 0.714664 219.322 0.799999H219.45C219.664 0.799999 219.877 0.842665 220.09 0.927998C220.304 1.01333 220.496 1.09867 220.666 1.184C220.837 1.184 221.05 1.22666 221.306 1.312C221.52 1.39733 221.648 1.52533 221.69 1.696C221.733 1.86667 221.69 1.99467 221.562 2.08C221.52 2.12266 221.456 2.12266 221.37 2.08C221.285 2.03733 221.2 2.016 221.114 2.016C221.029 2.016 220.944 1.97333 220.858 1.888C220.773 1.80266 220.688 1.73867 220.602 1.696C220.432 1.696 220.24 1.71733 220.026 1.76C219.856 1.80266 219.664 1.824 219.45 1.824H219.258C218.96 1.824 218.746 1.78133 218.618 1.696C218.533 1.568 218.32 1.54667 217.978 1.632C217.936 1.632 217.808 1.65333 217.594 1.696C217.381 1.73867 217.232 1.76 217.146 1.76C215.61 2.144 214.266 2.784 213.114 3.68C211.962 4.53333 210.938 5.49333 210.042 6.56C209.189 7.62667 208.357 8.65066 207.546 9.632C207.162 10.4 206.778 11.0187 206.394 11.488C206.352 11.5307 206.309 11.5093 206.266 11.424C206.224 11.3387 206.181 11.3387 206.138 11.424C206.01 11.552 205.904 11.7653 205.818 12.064C205.776 12.32 205.69 12.5333 205.562 12.704C205.52 12.7467 205.477 12.7253 205.434 12.64C205.392 12.5547 205.328 12.5547 205.242 12.64C205.2 12.6827 205.136 12.8533 205.05 13.152C205.008 13.408 204.944 13.5787 204.858 13.664C204.346 14.3467 203.792 15.008 203.194 15.648C202.597 16.288 202 17.0347 201.402 17.888C200.549 19.2107 199.738 20.512 198.97 21.792C198.202 23.072 197.392 24.48 196.538 26.016C196.24 26.528 196.005 26.9973 195.834 27.424C195.706 27.808 195.557 28.1707 195.386 28.512C195.301 28.64 195.258 28.8107 195.258 29.024C195.258 29.3227 195.429 29.472 195.77 29.472C196.026 29.472 196.282 29.408 196.538 29.28L197.178 29.024C198.202 28.0853 199.269 27.296 200.378 26.656C200.421 26.656 200.442 26.656 200.442 26.656C200.485 26.6133 200.528 26.592 200.57 26.592C200.698 26.592 200.784 26.6773 200.826 26.848C200.869 26.976 200.826 27.0827 200.698 27.168C199.461 27.8507 198.309 28.7253 197.242 29.792C197.2 29.8773 197.157 29.9627 197.114 30.048C197.072 30.1333 197.008 30.2187 196.922 30.304C196.837 30.3893 196.709 30.5387 196.538 30.752C196.41 30.9653 196.346 31.0933 196.346 31.136C196.304 31.264 196.24 31.3067 196.154 31.264C196.112 31.2213 195.984 31.2853 195.77 31.456C195.728 31.4987 195.685 31.584 195.642 31.712C195.642 31.84 195.621 31.9467 195.578 32.032C195.536 32.16 195.45 32.2667 195.322 32.352C195.237 32.3947 195.194 32.4373 195.194 32.48C195.152 32.6507 195.066 32.7573 194.938 32.8C194.853 32.8 194.768 32.8427 194.682 32.928C194.64 32.9707 194.64 33.0347 194.682 33.12C194.725 33.2053 194.704 33.2907 194.618 33.376C194.576 33.504 194.533 33.568 194.49 33.568C194.448 33.5253 194.384 33.5467 194.298 33.632C194.128 33.8027 194 33.888 193.914 33.888C193.658 33.9733 193.552 34.0373 193.594 34.08C193.68 34.1227 193.744 34.1653 193.786 34.208C193.872 34.208 193.808 34.272 193.594 34.4C193.509 34.4427 193.424 34.5707 193.338 34.784C193.253 34.9547 193.168 35.0827 193.082 35.168C192.954 35.2533 192.826 35.3173 192.698 35.36C192.613 35.4027 192.506 35.488 192.378 35.616C191.994 36 191.674 36.192 191.418 36.192ZM213.809 36.192C213.553 36.192 213.425 36.0427 213.425 35.744C213.425 35.5307 213.489 35.2747 213.617 34.976C213.958 34.2507 214.342 33.2267 214.769 31.904C215.238 30.5813 215.814 29.4507 216.497 28.512C216.966 27.5733 217.393 26.656 217.777 25.76C218.203 24.8213 218.609 23.8827 218.993 22.944C218.993 22.944 218.95 22.9227 218.865 22.88C218.779 22.7947 218.737 22.7093 218.737 22.624C218.523 22.4533 218.267 22.2187 217.969 21.92C217.67 21.5787 217.649 21.2373 217.905 20.896C217.99 20.8107 218.033 20.768 218.033 20.768C218.075 20.768 218.097 20.768 218.097 20.768C218.097 20.7253 218.075 20.704 218.033 20.704C218.033 20.704 218.033 20.6827 218.033 20.64L217.969 20.576C217.926 20.576 217.883 20.576 217.841 20.576C217.841 20.5333 217.819 20.512 217.777 20.512C217.606 20.512 217.414 20.5547 217.201 20.64C216.987 20.6827 216.774 20.704 216.561 20.704C216.305 20.704 215.963 20.8107 215.537 21.024C215.11 21.1947 214.726 21.344 214.385 21.472C214.214 21.5147 214.107 21.536 214.065 21.536C214.065 21.4933 213.979 21.5147 213.809 21.6C213.766 21.6427 213.766 21.5787 213.809 21.408C213.894 21.1947 213.937 21.0453 213.937 20.96C213.937 20.9173 213.915 20.896 213.873 20.896C213.787 20.896 213.617 21.024 213.361 21.28C213.105 21.4933 212.934 21.6213 212.849 21.664C212.806 21.7067 212.785 21.7707 212.785 21.856C212.827 21.9413 212.849 22.0267 212.849 22.112C212.849 22.24 212.742 22.3893 212.529 22.56C212.315 22.688 212.166 22.7947 212.081 22.88C211.91 23.008 211.697 23.0933 211.441 23.136C211.227 23.136 211.014 23.2213 210.801 23.392C210.545 23.5627 210.417 23.6907 210.417 23.776C210.459 23.8613 210.331 24.0107 210.033 24.224C209.649 24.5227 209.115 24.9707 208.433 25.568C207.793 26.1653 207.302 26.6987 206.961 27.168C206.15 28.1493 205.403 29.28 204.721 30.56C204.081 31.84 203.761 32.8427 203.761 33.568C203.761 34.1227 203.995 34.4 204.465 34.4C204.55 34.4 204.635 34.4 204.721 34.4C204.806 34.3573 204.913 34.3147 205.041 34.272L206.705 33.312L207.089 33.248V33.184L207.345 33.376C207.387 33.3333 207.366 33.2693 207.281 33.184C207.238 33.056 207.238 32.992 207.281 32.992C207.323 32.992 207.345 33.0133 207.345 33.056C207.387 33.056 207.43 33.056 207.473 33.056L207.601 32.864C207.601 32.864 207.665 32.8853 207.793 32.928C207.963 32.928 208.091 32.8853 208.177 32.8C208.305 32.7573 208.326 32.6933 208.241 32.608C208.198 32.5227 208.134 32.4587 208.049 32.416L208.497 32.032C208.539 31.9467 208.71 31.8613 209.009 31.776C209.734 31.3067 210.331 30.752 210.801 30.112C211.313 29.4293 211.889 28.8107 212.529 28.256H212.593L213.361 27.488L213.297 27.296L214.129 26.336H214.257C214.299 26.2507 214.385 26.144 214.513 26.016C214.683 25.888 214.79 25.7813 214.833 25.696C214.918 25.6533 215.11 25.44 215.409 25.056C215.75 24.6293 216.07 24.288 216.369 24.032C216.71 23.776 216.902 23.648 216.945 23.648C216.987 23.648 217.009 23.6693 217.009 23.712C217.009 23.84 216.945 24.032 216.817 24.288C216.731 24.544 216.646 24.7147 216.561 24.8C216.262 25.2693 215.878 25.8027 215.409 26.4C214.939 26.9547 214.662 27.296 214.577 27.424C214.065 27.9787 213.446 28.7253 212.721 29.664C211.995 30.56 211.206 31.456 210.353 32.352C209.499 33.248 208.646 34.016 207.793 34.656C206.982 35.2533 206.214 35.552 205.489 35.552C204.806 35.552 204.081 35.3387 203.313 34.912C202.545 34.4853 202.161 33.6747 202.161 32.48C202.161 32.096 202.203 31.6693 202.289 31.2C202.417 30.688 202.609 30.1547 202.865 29.6C202.865 29.6 202.907 29.5573 202.993 29.472C203.078 29.344 203.142 29.3013 203.185 29.344C203.27 29.216 203.291 29.088 203.249 28.96C203.249 28.7893 203.249 28.6827 203.249 28.64L203.377 28.512C203.462 28.0427 203.782 27.616 204.337 27.232C204.891 26.848 205.19 26.5493 205.233 26.336C205.275 26.2933 205.297 26.2293 205.297 26.144L205.553 25.312V25.056H205.809L206.001 24.8L206.065 24.672C205.979 24.6293 206.001 24.5653 206.129 24.48C206.299 24.352 206.385 24.288 206.385 24.288C206.427 24.2027 206.47 24.1387 206.513 24.096C206.598 24.0533 206.662 24.0107 206.705 23.968H207.153C207.238 23.84 207.195 23.776 207.025 23.776C206.854 23.776 206.769 23.776 206.769 23.776C206.769 23.7333 206.769 23.712 206.769 23.712C206.811 23.6693 206.833 23.6267 206.833 23.584L207.537 23.008C207.75 22.8373 207.963 22.688 208.177 22.56C208.39 22.432 208.582 22.2827 208.753 22.112C208.881 22.112 208.902 22.176 208.817 22.304C208.859 22.3893 208.902 22.3893 208.945 22.304C209.03 22.2187 209.073 22.176 209.073 22.176L209.393 22.112V22.048C209.393 21.9627 209.414 21.8347 209.457 21.664C209.499 21.4933 209.521 21.3867 209.521 21.344C210.417 20.6613 211.355 20.064 212.337 19.552C213.318 18.9973 214.278 18.72 215.217 18.72C216.326 18.72 217.329 19.1467 218.225 20L218.545 20.192C218.587 20.192 218.609 20.1707 218.609 20.128C218.694 19.5307 219.185 19.0827 220.081 18.784C221.019 18.4853 221.851 18.336 222.577 18.336C223.345 18.336 223.729 18.4427 223.729 18.656C223.729 18.7413 223.601 18.8907 223.345 19.104C223.217 19.1893 223.003 19.3813 222.705 19.68C222.406 19.9787 222.107 20.3413 221.809 20.768C221.766 20.896 221.702 21.024 221.617 21.152C221.531 21.28 221.446 21.408 221.361 21.536C221.318 21.6213 221.254 21.728 221.169 21.856C221.126 21.9413 221.062 22.0267 220.977 22.112C220.251 23.3493 219.675 24.3947 219.249 25.248C218.822 26.1013 218.31 27.1893 217.713 28.512C217.627 28.768 217.585 28.9173 217.585 28.96C217.585 29.3013 217.777 29.472 218.161 29.472C218.417 29.472 218.673 29.408 218.929 29.28L219.569 29.024C220.593 28.0853 221.659 27.296 222.769 26.656C222.811 26.656 222.833 26.656 222.833 26.656C222.875 26.6133 222.918 26.592 222.961 26.592C223.089 26.592 223.174 26.6773 223.217 26.848C223.259 26.976 223.217 27.0827 223.089 27.168C221.851 27.8507 220.699 28.7253 219.633 29.792C219.59 29.8773 219.547 29.9627 219.505 30.048C219.462 30.1333 219.398 30.2187 219.313 30.304C219.185 30.3893 219.057 30.5387 218.929 30.752C218.801 30.9653 218.737 31.0933 218.737 31.136C218.694 31.264 218.63 31.3067 218.545 31.264C218.502 31.2213 218.374 31.2853 218.161 31.456C218.118 31.4987 218.075 31.584 218.033 31.712C218.033 31.84 218.011 31.9467 217.969 32.032C217.883 32.16 217.798 32.2667 217.713 32.352C217.627 32.3947 217.585 32.4373 217.585 32.48C217.542 32.6507 217.457 32.7573 217.329 32.8C217.243 32.8 217.158 32.8427 217.073 32.928C217.03 32.928 217.009 32.9493 217.009 32.992C217.009 33.376 216.966 33.5467 216.881 33.504C216.795 33.4613 216.71 33.504 216.625 33.632C216.539 33.8027 216.433 33.888 216.305 33.888C216.049 33.9733 215.942 34.0373 215.985 34.08C216.07 34.1227 216.134 34.1653 216.177 34.208C216.262 34.208 216.198 34.272 215.985 34.4C215.899 34.4427 215.814 34.5707 215.729 34.784C215.643 34.9547 215.558 35.0827 215.473 35.168C215.345 35.2533 215.217 35.3173 215.089 35.36C214.961 35.4027 214.854 35.488 214.769 35.616C214.385 36 214.065 36.192 213.809 36.192ZM228.046 36.256C228.003 36.256 227.939 36.2133 227.854 36.128C227.768 36.0853 227.704 36.064 227.662 36.064C227.491 36.1067 227.342 36.128 227.214 36.128C227.086 36.128 226.958 36.128 226.83 36.128C226.787 36.128 226.744 36.1067 226.702 36.064C226.702 36.0213 226.68 36 226.638 36C226.595 36 226.574 36 226.574 36C226.616 36.0427 226.616 36.064 226.574 36.064C226.574 36.064 226.531 36.0427 226.446 36C226.36 35.9573 226.296 35.936 226.254 35.936L226.19 35.872C226.104 35.872 226.04 35.8507 225.998 35.808C225.998 35.7653 225.976 35.744 225.934 35.744L225.87 35.808L225.806 35.744C225.72 35.7013 225.592 35.6587 225.422 35.616C225.294 35.5307 225.187 35.4667 225.102 35.424C225.016 35.424 224.91 35.36 224.782 35.232H224.654C224.568 35.104 224.419 35.0187 224.206 34.976C224.206 34.9333 224.184 34.8907 224.142 34.848H224.078C223.992 34.72 223.928 34.6773 223.886 34.72C223.843 34.6347 223.779 34.5707 223.694 34.528C223.651 34.4427 223.587 34.3787 223.502 34.336C223.502 34.1653 223.459 34.08 223.374 34.08C223.374 33.9947 223.288 33.8667 223.118 33.696C222.99 33.5253 222.904 33.376 222.862 33.248L222.798 33.184C222.627 33.0133 222.499 32.736 222.414 32.352C222.371 32.1813 222.328 32.1173 222.286 32.16C222.286 32.2027 222.264 32.096 222.222 31.84C222.222 31.7973 222.222 31.7333 222.222 31.648C222.264 31.52 222.264 31.4347 222.222 31.392C222.222 31.3493 222.2 31.328 222.158 31.328C222.158 31.2853 222.158 31.2427 222.158 31.2C222.115 31.1573 222.094 31.136 222.094 31.136C222.136 31.0933 222.158 31.072 222.158 31.072C222.158 30.9867 222.136 30.944 222.094 30.944C222.094 30.9013 222.094 30.8587 222.094 30.816V30.688C222.094 30.4747 222.136 30.3253 222.222 30.24C222.222 30.1547 222.243 30.0907 222.286 30.048C222.328 30.0053 222.35 29.9627 222.35 29.92C222.35 29.8347 222.392 29.792 222.478 29.792C222.563 29.792 222.606 29.7707 222.606 29.728C222.606 29.6427 222.627 29.6 222.67 29.6C222.755 29.5573 222.819 29.5147 222.862 29.472C222.862 29.4293 222.883 29.3867 222.926 29.344C223.011 29.3013 223.054 29.2587 223.054 29.216C223.267 29.088 223.502 29.024 223.758 29.024C224.27 29.024 224.526 29.152 224.526 29.408C224.526 29.4933 224.398 29.6427 224.142 29.856C224.099 29.984 224.078 30.0693 224.078 30.112C224.12 30.112 224.099 30.1547 224.014 30.24C224.056 30.368 224.078 30.5387 224.078 30.752C224.035 30.752 224.014 30.816 224.014 30.944C224.056 31.0293 224.078 31.072 224.078 31.072C224.078 31.1147 224.099 31.2427 224.142 31.456C224.227 31.6693 224.291 31.7973 224.334 31.84C224.334 31.84 224.376 31.9467 224.462 32.16C224.547 32.3307 224.59 32.4373 224.59 32.48V32.608C224.675 32.736 224.718 32.8213 224.718 32.864C224.76 32.864 224.931 32.9493 225.23 33.12C225.272 33.1627 225.358 33.184 225.486 33.184C225.699 33.312 225.848 33.4187 225.934 33.504C226.062 33.5893 226.36 33.6747 226.83 33.76C227 33.8027 227.064 33.8453 227.022 33.888C227.022 33.888 227.107 33.888 227.278 33.888C227.278 33.888 227.278 33.9093 227.278 33.952C227.278 33.952 227.299 33.952 227.342 33.952C227.427 33.9093 227.512 33.9093 227.598 33.952C227.683 33.952 227.768 33.9307 227.854 33.888H228.11C228.408 33.888 228.728 33.8453 229.07 33.76L230.03 33.504C230.328 33.4613 230.606 33.376 230.862 33.248C231.118 33.12 231.352 32.992 231.566 32.864C231.608 32.864 231.736 32.8 231.95 32.672C232.163 32.5013 232.419 32.3307 232.718 32.16C232.675 32.032 232.654 31.8613 232.654 31.648C232.654 31.52 232.718 31.456 232.846 31.456C232.974 31.4133 233.059 31.3493 233.102 31.264C232.974 31.1787 232.803 31.136 232.59 31.136C232.419 31.136 232.355 31.072 232.398 30.944C232.227 30.0053 231.971 29.152 231.63 28.384C231.331 27.616 230.968 26.7627 230.542 25.824C230.499 25.696 230.414 25.4827 230.286 25.184C230.158 24.8853 230.072 24.6507 230.03 24.48C230.03 24.4373 230.072 24.4373 230.158 24.48C230.243 24.48 230.264 24.4587 230.222 24.416C230.179 24.2027 230.136 23.9893 230.094 23.776C230.094 23.5627 230.072 23.3707 230.03 23.2C229.987 23.1147 230.03 23.0507 230.158 23.008C230.286 22.9653 230.328 22.9013 230.286 22.816C230.243 22.7307 230.158 22.7093 230.03 22.752C229.902 22.7947 229.816 22.7733 229.774 22.688L229.582 21.92C229.582 21.7067 229.539 21.5787 229.454 21.536C229.411 21.4933 229.454 21.408 229.582 21.28C229.667 21.2373 229.71 21.1733 229.71 21.088C229.71 20.96 229.731 20.8747 229.774 20.832C229.987 20.704 230.072 20.5547 230.03 20.384C229.987 20.1707 230.03 19.9787 230.158 19.808C230.286 19.6373 230.392 19.488 230.478 19.36C230.563 19.1893 230.691 19.0827 230.862 19.04C230.99 18.9547 231.032 18.976 230.99 19.104C230.947 19.232 230.947 19.296 230.99 19.296C231.203 19.296 231.288 19.1893 231.246 18.976C231.203 18.7627 231.267 18.5707 231.438 18.4C231.736 18.144 232.184 17.9307 232.782 17.76C233.379 17.5893 233.827 17.4827 234.126 17.44C234.211 17.44 234.275 17.44 234.318 17.44C234.403 17.3973 234.467 17.376 234.51 17.376C234.723 17.376 234.936 17.3973 235.15 17.44C235.406 17.4827 235.64 17.5253 235.854 17.568C236.024 17.6107 236.28 17.7813 236.622 18.08C236.963 18.336 237.219 18.4 237.39 18.272C237.774 17.9307 238.179 17.632 238.606 17.376C239.075 17.12 239.374 17.0133 239.502 17.056C239.843 17.0987 240.142 17.2053 240.398 17.376C240.654 17.504 240.739 17.9307 240.654 18.656C240.611 18.912 240.504 19.1253 240.334 19.296C240.206 19.424 240.078 19.5947 239.95 19.808L239.502 20.448C239.331 20.7467 239.118 21.0453 238.862 21.344C238.648 21.6427 238.456 21.8347 238.286 21.92C238.115 22.0053 237.944 22.1547 237.774 22.368C237.646 22.5387 237.475 22.7093 237.262 22.88C237.048 23.0507 236.814 23.1787 236.558 23.264C236.344 23.3067 236.195 23.3493 236.11 23.392C235.982 23.4347 235.79 23.456 235.534 23.456C235.32 23.4133 235.256 23.328 235.342 23.2C235.427 23.1573 235.448 23.1147 235.406 23.072C235.363 22.9867 235.342 22.9227 235.342 22.88C235.342 22.7947 235.384 22.7307 235.47 22.688C235.598 22.6453 235.683 22.5813 235.726 22.496C235.768 22.4533 235.875 22.304 236.046 22.048C236.259 21.792 236.344 21.6427 236.302 21.6C236.302 21.472 236.344 21.3653 236.43 21.28C236.43 21.1947 236.43 21.1307 236.43 21.088C236.43 21.0027 236.472 20.9387 236.558 20.896C236.728 20.8533 236.814 20.7893 236.814 20.704V19.936C236.814 19.7653 236.792 19.5947 236.75 19.424C236.75 19.2533 236.707 19.104 236.622 18.976C236.28 18.5493 235.726 18.336 234.958 18.336C234.403 18.336 233.87 18.464 233.358 18.72C232.803 18.976 232.334 19.4027 231.95 20C231.651 20.4267 231.502 20.8747 231.502 21.344C231.502 21.6853 231.566 22.0267 231.694 22.368C231.864 22.7093 232.014 23.0293 232.142 23.328C232.27 23.6267 232.44 23.9893 232.654 24.416C232.91 24.8427 233.102 25.184 233.23 25.44C233.443 25.7813 233.678 26.1867 233.934 26.656C234.19 27.0827 234.382 27.488 234.51 27.872C234.552 27.9147 234.51 27.9573 234.382 28C234.296 28 234.275 28.0427 234.318 28.128C234.36 28.2133 234.424 28.256 234.51 28.256C234.595 28.256 234.659 28.2987 234.702 28.384C234.787 28.512 234.787 28.6187 234.702 28.704C234.659 28.7893 234.659 28.9173 234.702 29.088C234.702 29.1307 234.744 29.1733 234.83 29.216C234.915 29.2587 234.958 29.3013 234.958 29.344C235.171 29.8987 235.278 30.3467 235.278 30.688C235.662 30.4747 236.088 30.2187 236.558 29.92C237.027 29.6213 237.283 29.344 237.326 29.088C237.368 29.0027 237.432 28.9813 237.518 29.024C237.646 29.024 237.71 29.0667 237.71 29.152C237.667 29.4507 237.304 29.856 236.622 30.368C235.982 30.88 235.491 31.2427 235.15 31.456C235.192 31.4987 235.171 31.6053 235.086 31.776C235 31.9467 234.979 32.0747 235.022 32.16C235.022 32.2027 235 32.2667 234.958 32.352C234.915 32.3947 234.872 32.4587 234.83 32.544C234.83 32.7147 234.787 32.8427 234.702 32.928V33.056L234.51 33.184C234.467 33.2267 234.403 33.3333 234.318 33.504C234.275 33.632 234.211 33.7387 234.126 33.824H233.934C233.848 33.9093 233.806 34.016 233.806 34.144C233.72 34.272 233.528 34.4213 233.23 34.592C232.931 34.72 232.739 34.848 232.654 34.976C232.654 34.976 232.632 34.976 232.59 34.976C232.547 34.976 232.483 35.0187 232.398 35.104H232.206C232.163 35.104 232.12 35.1467 232.078 35.232C232.035 35.2747 231.992 35.3173 231.95 35.36C231.822 35.36 231.758 35.4027 231.758 35.488C231.587 35.488 231.459 35.5093 231.374 35.552L230.734 35.68C230.563 35.8507 230.414 35.936 230.286 35.936L230.222 35.872C230.136 35.9573 230.072 36 230.03 36H229.774C229.731 36 229.688 36.0213 229.646 36.064C229.603 36.1067 229.56 36.128 229.518 36.128H229.39C229.347 36.128 229.304 36.128 229.262 36.128C229.262 36.1707 229.219 36.192 229.134 36.192C229.006 36.192 228.814 36.192 228.558 36.192C228.344 36.192 228.174 36.2133 228.046 36.256ZM227.406 35.68C227.406 35.68 227.448 35.68 227.534 35.68C227.662 35.6373 227.747 35.616 227.79 35.616C228.003 35.616 228.195 35.6373 228.366 35.68C228.536 35.68 228.707 35.68 228.878 35.68C228.963 35.68 229.006 35.6373 229.006 35.552H229.134C229.262 35.424 229.326 35.4027 229.326 35.488C229.368 35.5733 229.432 35.5733 229.518 35.488C229.603 35.488 229.646 35.4667 229.646 35.424L229.902 35.296C229.944 35.296 229.966 35.296 229.966 35.296C229.966 35.2533 229.987 35.232 230.03 35.232H230.158C230.243 35.232 230.328 35.1893 230.414 35.104C230.499 35.0187 230.542 34.976 230.542 34.976C230.542 34.976 230.606 34.912 230.734 34.784C230.734 34.784 230.755 34.784 230.798 34.784C230.84 34.7413 230.883 34.72 230.926 34.72C231.011 34.6347 231.096 34.592 231.182 34.592C231.182 34.5493 231.224 34.5067 231.31 34.464C231.395 34.3787 231.438 34.336 231.438 34.336C231.48 34.2933 231.523 34.272 231.566 34.272C231.651 34.2293 231.694 34.1867 231.694 34.144C231.779 34.144 231.95 33.9947 232.206 33.696C232.462 33.3973 232.632 33.0347 232.718 32.608C232.718 32.5227 232.59 32.5867 232.334 32.8C232.078 32.9707 231.95 33.056 231.95 33.056C231.822 33.0987 231.694 33.184 231.566 33.312C231.438 33.3973 231.331 33.44 231.246 33.44C231.203 33.44 231.139 33.4827 231.054 33.568C231.011 33.6107 230.968 33.632 230.926 33.632C230.883 33.632 230.862 33.6533 230.862 33.696C230.862 33.696 230.819 33.6747 230.734 33.632C230.691 33.7173 230.563 33.8027 230.35 33.888C230.136 33.9733 229.987 34.016 229.902 34.016H229.71L229.646 34.08C229.646 34.08 229.624 34.1013 229.582 34.144C229.539 34.144 229.496 34.144 229.454 34.144L229.006 34.208H228.942C228.899 34.208 228.856 34.2293 228.814 34.272C228.643 34.272 228.451 34.2933 228.238 34.336C228.024 34.3787 227.896 34.4 227.854 34.4H227.79C227.79 34.3573 227.768 34.336 227.726 34.336V34.4H227.406C227.278 34.4 227.128 34.3787 226.958 34.336C226.83 34.2507 226.723 34.208 226.638 34.208C226.595 34.208 226.574 34.2293 226.574 34.272C226.574 34.272 226.552 34.272 226.51 34.272H226.382C226.339 34.272 226.318 34.2507 226.318 34.208H225.998C225.998 34.08 225.955 34.0587 225.87 34.144H225.806C225.635 34.144 225.486 34.08 225.358 33.952C225.272 33.824 225.123 33.76 224.91 33.76L224.718 33.568C224.718 33.6107 224.696 33.6533 224.654 33.696C224.654 33.696 224.654 33.7173 224.654 33.76C224.654 33.76 224.675 33.8027 224.718 33.888C224.803 33.9307 224.846 33.9733 224.846 34.016L224.974 34.272L225.23 34.592L225.358 34.72C225.4 34.7627 225.422 34.784 225.422 34.784C225.464 34.784 225.507 34.8267 225.55 34.912C225.635 34.912 225.678 34.976 225.678 35.104C226.403 35.488 226.979 35.68 227.406 35.68Z" fill="#14090D"/>
</g>
<defs>
<filter id="filter0_d_4_22" x="0.388672" y="0.543991" width="244.393" height="51.2" filterUnits="userSpaceOnUse" color-interpolation-filters="sRGB">
<feFlood flood-opacity="0" result="BackgroundImageFix"/>
<feColorMatrix in="SourceAlpha" type="matrix" values="0 0 0 0 0 0 0 0 0 0 0 0 0 0 0 0 0 0 127 0" result="hardAlpha"/>
<feOffset dy="4"/>
<feGaussianBlur stdDeviation="2"/>
<feComposite in2="hardAlpha" operator="out"/>
<feColorMatrix type="matrix" values="0 0 0 0 0 0 0 0 0 0 0 0 0 0 0 0 0 0 0.25 0"/>
<feBlend mode="normal" in2="BackgroundImageFix" result="effect1_dropShadow_4_22"/>
<feBlend mode="normal" in="SourceGraphic" in2="effect1_dropShadow_4_22" result="shape"/>
</filter>
</defs>
</svg>
